M48
INCH
T41C0.020
T40C0.128
T39C0.038
T38C0.030
%
T41
X008250Y003550
X007750Y004100
X007750Y002850
X004400Y002850
X009050Y003900
X012350Y007000
X012350Y006500
X009600Y003900
X012700Y004050
X008600Y002100
T38
X006800Y006100
X005800Y005600
X005800Y004600
X005800Y003600
X006800Y005100
X006800Y004100
T39
X010450Y007250
X009450Y007250
X008450Y007250
X010450Y006250
X009450Y006250
X008450Y006250
X015350Y007600
X014350Y007600
X013350Y007600
X000650Y004600
X000650Y003600
X000650Y002600
X000650Y001600
X000650Y007600
X000650Y006600
X000650Y005600
X000650Y000600
X004100Y001300
X005100Y001300
X006100Y001300
X007800Y001300
X008800Y001300
X009800Y001300
T40
X003300Y002850
X003300Y006850
M30
