G04 start of page 3 for group 1 idx 1 *
G04 Title: (unknown), solder *
G04 Creator: pcb 20110918 *
G04 CreationDate: Sun 25 Aug 2013 09:43:08 PM GMT UTC *
G04 For: ndholmes *
G04 Format: Gerber/RS-274X *
G04 PCB-Dimensions: 180000 82000 *
G04 PCB-Coordinate-Origin: lower left *
%MOIN*%
%FSLAX25Y25*%
%LNBOTTOM*%
%ADD36C,0.1280*%
%ADD35C,0.0380*%
%ADD34C,0.0300*%
%ADD33C,0.0200*%
%ADD32C,0.0360*%
%ADD31C,0.1440*%
%ADD30C,0.0600*%
%ADD29C,0.0700*%
%ADD28C,0.0100*%
%ADD27C,0.0001*%
G54D27*G36*
X1000Y1000D02*Y10000D01*
X4415D01*
X3847Y9652D01*
X3308Y9192D01*
X2848Y8653D01*
X2478Y8049D01*
X2207Y7395D01*
X2042Y6706D01*
X1986Y6000D01*
X2042Y5294D01*
X2207Y4605D01*
X2478Y3951D01*
X2848Y3347D01*
X3308Y2808D01*
X3847Y2348D01*
X4451Y1978D01*
X5105Y1707D01*
X5794Y1542D01*
X6500Y1486D01*
X7206Y1542D01*
X7895Y1707D01*
X8549Y1978D01*
X9153Y2348D01*
X9692Y2808D01*
X10152Y3347D01*
X10522Y3951D01*
X10749Y4500D01*
X27500D01*
X27500Y4500D01*
X42941D01*
X43000Y4495D01*
X43235Y4514D01*
X43235Y4514D01*
X43465Y4569D01*
X43683Y4659D01*
X43884Y4783D01*
X44064Y4936D01*
X44102Y4981D01*
X47019Y7898D01*
X47064Y7936D01*
X47217Y8115D01*
X47217Y8116D01*
X47341Y8317D01*
X47431Y8535D01*
X47486Y8765D01*
X47505Y9000D01*
X47500Y9059D01*
Y10000D01*
X47644D01*
X47808Y9808D01*
X48347Y9348D01*
X48951Y8978D01*
X49605Y8707D01*
X50294Y8542D01*
X51000Y8486D01*
X51706Y8542D01*
X52395Y8707D01*
X53049Y8978D01*
X53653Y9348D01*
X54192Y9808D01*
X54356Y10000D01*
X59008D01*
X58946Y9913D01*
X58893Y9808D01*
X58857Y9695D01*
X58840Y9579D01*
X58841Y9461D01*
X58860Y9344D01*
X58897Y9232D01*
X58952Y9127D01*
X59022Y9032D01*
X59106Y8949D01*
X59202Y8881D01*
X59308Y8830D01*
X59716Y8682D01*
X60137Y8578D01*
X60567Y8516D01*
X61000Y8495D01*
X61433Y8516D01*
X61863Y8578D01*
X62284Y8682D01*
X62694Y8825D01*
X62800Y8878D01*
X62896Y8947D01*
X62981Y9030D01*
X63051Y9125D01*
X63106Y9231D01*
X63143Y9343D01*
X63163Y9460D01*
X63164Y9579D01*
X63146Y9696D01*
X63110Y9809D01*
X63057Y9915D01*
X62996Y10000D01*
X73513D01*
X73514Y9765D01*
X73569Y9535D01*
X73659Y9317D01*
X73783Y9116D01*
X73936Y8936D01*
X74116Y8783D01*
X74317Y8659D01*
X74535Y8569D01*
X74765Y8514D01*
X75000Y8500D01*
X81235Y8514D01*
X81465Y8569D01*
X81683Y8659D01*
X81884Y8783D01*
X82064Y8936D01*
X82217Y9116D01*
X82341Y9317D01*
X82431Y9535D01*
X82486Y9765D01*
X82500Y10000D01*
X84644D01*
X84808Y9808D01*
X85347Y9348D01*
X85951Y8978D01*
X86605Y8707D01*
X87294Y8542D01*
X88000Y8486D01*
X88706Y8542D01*
X89395Y8707D01*
X90049Y8978D01*
X90653Y9348D01*
X91192Y9808D01*
X91356Y10000D01*
X96008D01*
X95946Y9913D01*
X95893Y9808D01*
X95857Y9695D01*
X95840Y9579D01*
X95841Y9461D01*
X95860Y9344D01*
X95897Y9232D01*
X95952Y9127D01*
X96022Y9032D01*
X96106Y8949D01*
X96202Y8881D01*
X96308Y8830D01*
X96716Y8682D01*
X97137Y8578D01*
X97567Y8516D01*
X98000Y8495D01*
X98433Y8516D01*
X98863Y8578D01*
X99284Y8682D01*
X99694Y8825D01*
X99800Y8878D01*
X99896Y8947D01*
X99981Y9030D01*
X100051Y9125D01*
X100106Y9231D01*
X100143Y9343D01*
X100163Y9460D01*
X100164Y9579D01*
X100146Y9696D01*
X100110Y9809D01*
X100057Y9915D01*
X99996Y10000D01*
X140000D01*
Y1000D01*
X1000D01*
G37*
G36*
X32243Y14500D02*X33441D01*
X33500Y14495D01*
X33735Y14514D01*
X33735Y14514D01*
X33965Y14569D01*
X34183Y14659D01*
X34384Y14783D01*
X34564Y14936D01*
X34602Y14981D01*
X43121Y23500D01*
X48879D01*
X44981Y19602D01*
X44936Y19564D01*
X44783Y19384D01*
X44659Y19183D01*
X44569Y18965D01*
X44514Y18735D01*
X44514Y18735D01*
X44495Y18500D01*
X44500Y18441D01*
Y17416D01*
X44465Y17431D01*
X44235Y17486D01*
X44000Y17500D01*
X37765Y17486D01*
X37535Y17431D01*
X37317Y17341D01*
X37116Y17217D01*
X36936Y17064D01*
X36783Y16884D01*
X36659Y16683D01*
X36569Y16465D01*
X36514Y16235D01*
X36500Y16000D01*
X36514Y9765D01*
X36569Y9535D01*
X36659Y9317D01*
X36783Y9116D01*
X36936Y8936D01*
X37116Y8783D01*
X37317Y8659D01*
X37535Y8569D01*
X37765Y8514D01*
X38000Y8500D01*
X43391Y8512D01*
X42879Y8000D01*
X32243D01*
Y14500D01*
G37*
G36*
Y20334D02*X33000Y20275D01*
X34287Y20376D01*
X35542Y20677D01*
X36420Y21041D01*
X32879Y17500D01*
X32243D01*
Y20334D01*
G37*
G36*
Y37500D02*X53751D01*
X53707Y37395D01*
X53542Y36706D01*
X53486Y36000D01*
X53542Y35294D01*
X53707Y34605D01*
X53978Y33951D01*
X54348Y33347D01*
X54808Y32808D01*
X55347Y32348D01*
X55951Y31978D01*
X56605Y31707D01*
X57294Y31542D01*
X58000Y31486D01*
X58706Y31542D01*
X59395Y31707D01*
X60049Y31978D01*
X60653Y32348D01*
X61192Y32808D01*
X61652Y33347D01*
X62022Y33951D01*
X62042Y34000D01*
X80135D01*
X80228Y33849D01*
X80514Y33514D01*
X80849Y33228D01*
X81225Y32997D01*
X81632Y32829D01*
X82061Y32726D01*
X82500Y32691D01*
X82939Y32726D01*
X83368Y32829D01*
X83775Y32997D01*
X84151Y33228D01*
X84486Y33514D01*
X84500Y33530D01*
Y30621D01*
X80379Y26500D01*
X79470D01*
X79486Y26514D01*
X79772Y26849D01*
X80003Y27225D01*
X80171Y27632D01*
X80274Y28061D01*
X80300Y28500D01*
X80274Y28939D01*
X80171Y29368D01*
X80003Y29775D01*
X79772Y30151D01*
X79486Y30486D01*
X79151Y30772D01*
X78775Y31003D01*
X78368Y31171D01*
X77939Y31274D01*
X77500Y31309D01*
X77061Y31274D01*
X76632Y31171D01*
X76225Y31003D01*
X75849Y30772D01*
X75514Y30486D01*
X75228Y30151D01*
X75135Y30000D01*
X46365D01*
X46272Y30151D01*
X45986Y30486D01*
X45651Y30772D01*
X45275Y31003D01*
X44868Y31171D01*
X44439Y31274D01*
X44000Y31309D01*
X43561Y31274D01*
X43132Y31171D01*
X42725Y31003D01*
X42349Y30772D01*
X42014Y30486D01*
X41728Y30151D01*
X41497Y29775D01*
X41329Y29368D01*
X41226Y28939D01*
X41196Y28563D01*
X41124Y29787D01*
X40823Y31042D01*
X40329Y32234D01*
X39654Y33335D01*
X38816Y34316D01*
X37835Y35154D01*
X36734Y35829D01*
X35542Y36323D01*
X34287Y36624D01*
X33000Y36725D01*
X32243Y36666D01*
Y37500D01*
G37*
G36*
X108113Y81000D02*X118000D01*
Y40500D01*
X108113D01*
Y60353D01*
X108156Y60360D01*
X108268Y60397D01*
X108373Y60452D01*
X108468Y60522D01*
X108551Y60606D01*
X108619Y60702D01*
X108670Y60808D01*
X108818Y61216D01*
X108922Y61637D01*
X108984Y62067D01*
X109005Y62500D01*
X108984Y62933D01*
X108922Y63363D01*
X108818Y63784D01*
X108675Y64194D01*
X108622Y64300D01*
X108553Y64396D01*
X108470Y64481D01*
X108375Y64551D01*
X108269Y64606D01*
X108157Y64643D01*
X108113Y64651D01*
Y68130D01*
X108183Y68159D01*
X108384Y68283D01*
X108564Y68436D01*
X108717Y68616D01*
X108841Y68817D01*
X108931Y69035D01*
X108986Y69265D01*
X109000Y69500D01*
X108986Y75735D01*
X108931Y75965D01*
X108841Y76183D01*
X108717Y76384D01*
X108564Y76564D01*
X108384Y76717D01*
X108183Y76841D01*
X108113Y76870D01*
Y81000D01*
G37*
G36*
Y40500D02*X104500D01*
Y57995D01*
X104933Y58016D01*
X105363Y58078D01*
X105784Y58182D01*
X106194Y58325D01*
X106300Y58378D01*
X106396Y58447D01*
X106481Y58530D01*
X106551Y58625D01*
X106606Y58731D01*
X106643Y58843D01*
X106663Y58960D01*
X106664Y59079D01*
X106646Y59196D01*
X106610Y59309D01*
X106557Y59415D01*
X106488Y59512D01*
X106405Y59596D01*
X106309Y59667D01*
X106204Y59721D01*
X106092Y59759D01*
X105975Y59778D01*
X105856Y59779D01*
X105739Y59761D01*
X105626Y59723D01*
X105355Y59624D01*
X105075Y59556D01*
X104789Y59514D01*
X104500Y59500D01*
Y65500D01*
X104789Y65486D01*
X105075Y65444D01*
X105355Y65376D01*
X105628Y65280D01*
X105739Y65242D01*
X105856Y65225D01*
X105974Y65225D01*
X106091Y65245D01*
X106203Y65282D01*
X106307Y65336D01*
X106402Y65406D01*
X106485Y65491D01*
X106554Y65587D01*
X106607Y65692D01*
X106643Y65805D01*
X106660Y65921D01*
X106659Y66039D01*
X106640Y66156D01*
X106603Y66268D01*
X106548Y66373D01*
X106478Y66468D01*
X106394Y66551D01*
X106298Y66619D01*
X106192Y66670D01*
X105784Y66818D01*
X105363Y66922D01*
X104933Y66984D01*
X104500Y67005D01*
Y68007D01*
X107735Y68014D01*
X107965Y68069D01*
X108113Y68130D01*
Y64651D01*
X108040Y64663D01*
X107921Y64664D01*
X107804Y64646D01*
X107691Y64610D01*
X107585Y64557D01*
X107488Y64488D01*
X107404Y64405D01*
X107333Y64309D01*
X107279Y64204D01*
X107241Y64092D01*
X107222Y63975D01*
X107221Y63856D01*
X107239Y63739D01*
X107277Y63626D01*
X107376Y63355D01*
X107444Y63075D01*
X107486Y62789D01*
X107500Y62500D01*
X107486Y62211D01*
X107444Y61925D01*
X107376Y61645D01*
X107280Y61372D01*
X107242Y61261D01*
X107225Y61144D01*
X107225Y61026D01*
X107245Y60909D01*
X107282Y60797D01*
X107336Y60693D01*
X107406Y60598D01*
X107491Y60515D01*
X107587Y60446D01*
X107692Y60393D01*
X107805Y60357D01*
X107921Y60340D01*
X108039Y60341D01*
X108113Y60353D01*
Y40500D01*
G37*
G36*
X104500Y81000D02*X108113D01*
Y76870D01*
X107965Y76931D01*
X107735Y76986D01*
X107500Y77000D01*
X104500Y76993D01*
Y81000D01*
G37*
G36*
X100887Y68130D02*X101035Y68069D01*
X101265Y68014D01*
X101500Y68000D01*
X104500Y68007D01*
Y67005D01*
X104067Y66984D01*
X103637Y66922D01*
X103216Y66818D01*
X102806Y66675D01*
X102700Y66622D01*
X102604Y66553D01*
X102519Y66470D01*
X102449Y66375D01*
X102394Y66269D01*
X102357Y66157D01*
X102337Y66040D01*
X102336Y65921D01*
X102354Y65804D01*
X102390Y65691D01*
X102443Y65585D01*
X102512Y65488D01*
X102595Y65404D01*
X102691Y65333D01*
X102796Y65279D01*
X102908Y65241D01*
X103025Y65222D01*
X103144Y65221D01*
X103261Y65239D01*
X103374Y65277D01*
X103645Y65376D01*
X103925Y65444D01*
X104211Y65486D01*
X104500Y65500D01*
Y59500D01*
X104211Y59514D01*
X103925Y59556D01*
X103645Y59624D01*
X103372Y59720D01*
X103261Y59758D01*
X103144Y59775D01*
X103026Y59775D01*
X102909Y59755D01*
X102797Y59718D01*
X102693Y59664D01*
X102598Y59594D01*
X102515Y59509D01*
X102446Y59413D01*
X102393Y59308D01*
X102357Y59195D01*
X102340Y59079D01*
X102341Y58961D01*
X102360Y58844D01*
X102397Y58732D01*
X102452Y58627D01*
X102522Y58532D01*
X102606Y58449D01*
X102702Y58381D01*
X102808Y58330D01*
X103216Y58182D01*
X103637Y58078D01*
X104067Y58016D01*
X104500Y57995D01*
Y40500D01*
X100887D01*
Y60349D01*
X100960Y60337D01*
X101079Y60336D01*
X101196Y60354D01*
X101309Y60390D01*
X101415Y60443D01*
X101512Y60512D01*
X101596Y60595D01*
X101667Y60691D01*
X101721Y60796D01*
X101759Y60908D01*
X101778Y61025D01*
X101779Y61144D01*
X101761Y61261D01*
X101723Y61374D01*
X101624Y61645D01*
X101556Y61925D01*
X101514Y62211D01*
X101500Y62500D01*
X101514Y62789D01*
X101556Y63075D01*
X101624Y63355D01*
X101720Y63628D01*
X101758Y63739D01*
X101775Y63856D01*
X101775Y63974D01*
X101755Y64091D01*
X101718Y64203D01*
X101664Y64307D01*
X101594Y64402D01*
X101509Y64485D01*
X101413Y64554D01*
X101308Y64607D01*
X101195Y64643D01*
X101079Y64660D01*
X100961Y64659D01*
X100887Y64647D01*
Y68130D01*
G37*
G36*
Y81000D02*X104500D01*
Y76993D01*
X101265Y76986D01*
X101035Y76931D01*
X100887Y76870D01*
Y81000D01*
G37*
G36*
X94493D02*X100887D01*
Y76870D01*
X100817Y76841D01*
X100616Y76717D01*
X100436Y76564D01*
X100283Y76384D01*
X100159Y76183D01*
X100069Y75965D01*
X100014Y75735D01*
X100000Y75500D01*
X100014Y69265D01*
X100069Y69035D01*
X100159Y68817D01*
X100283Y68616D01*
X100436Y68436D01*
X100616Y68283D01*
X100817Y68159D01*
X100887Y68130D01*
Y64647D01*
X100844Y64640D01*
X100732Y64603D01*
X100627Y64548D01*
X100532Y64478D01*
X100449Y64394D01*
X100381Y64298D01*
X100330Y64192D01*
X100182Y63784D01*
X100078Y63363D01*
X100016Y62933D01*
X99995Y62500D01*
X100016Y62067D01*
X100078Y61637D01*
X100182Y61216D01*
X100325Y60806D01*
X100378Y60700D01*
X100447Y60604D01*
X100530Y60519D01*
X100625Y60449D01*
X100731Y60394D01*
X100843Y60357D01*
X100887Y60349D01*
Y40500D01*
X98365D01*
X98272Y40651D01*
X97986Y40986D01*
X97651Y41272D01*
X97275Y41503D01*
X96868Y41671D01*
X96439Y41774D01*
X96000Y41809D01*
X95561Y41774D01*
X95132Y41671D01*
X95003Y41618D01*
X94493Y42128D01*
Y57987D01*
X94500Y57986D01*
X95206Y58042D01*
X95895Y58207D01*
X96549Y58478D01*
X97153Y58848D01*
X97692Y59308D01*
X98152Y59847D01*
X98522Y60451D01*
X98793Y61105D01*
X98958Y61794D01*
X99000Y62500D01*
X98958Y63206D01*
X98793Y63895D01*
X98522Y64549D01*
X98152Y65153D01*
X97692Y65692D01*
X97153Y66152D01*
X96549Y66522D01*
X95895Y66793D01*
X95206Y66958D01*
X94500Y67014D01*
X94493Y67013D01*
Y67987D01*
X94500Y67986D01*
X95206Y68042D01*
X95895Y68207D01*
X96549Y68478D01*
X97153Y68848D01*
X97692Y69308D01*
X98152Y69847D01*
X98522Y70451D01*
X98793Y71105D01*
X98958Y71794D01*
X99000Y72500D01*
X98958Y73206D01*
X98793Y73895D01*
X98522Y74549D01*
X98152Y75153D01*
X97692Y75692D01*
X97153Y76152D01*
X96549Y76522D01*
X95895Y76793D01*
X95206Y76958D01*
X94500Y77014D01*
X94493Y77013D01*
Y81000D01*
G37*
G36*
X84493D02*X94493D01*
Y77013D01*
X93794Y76958D01*
X93105Y76793D01*
X92451Y76522D01*
X91847Y76152D01*
X91308Y75692D01*
X90848Y75153D01*
X90478Y74549D01*
X90207Y73895D01*
X90042Y73206D01*
X89986Y72500D01*
X90042Y71794D01*
X90207Y71105D01*
X90478Y70451D01*
X90848Y69847D01*
X91308Y69308D01*
X91847Y68848D01*
X92451Y68478D01*
X93105Y68207D01*
X93794Y68042D01*
X94493Y67987D01*
Y67013D01*
X93794Y66958D01*
X93105Y66793D01*
X92451Y66522D01*
X91847Y66152D01*
X91308Y65692D01*
X90848Y65153D01*
X90478Y64549D01*
X90207Y63895D01*
X90042Y63206D01*
X89986Y62500D01*
X90042Y61794D01*
X90207Y61105D01*
X90478Y60451D01*
X90848Y59847D01*
X91308Y59308D01*
X91847Y58848D01*
X92451Y58478D01*
X93105Y58207D01*
X93794Y58042D01*
X94493Y57987D01*
Y42128D01*
X93102Y43519D01*
X93064Y43564D01*
X92884Y43717D01*
X92683Y43841D01*
X92465Y43931D01*
X92235Y43986D01*
X92235Y43986D01*
X92000Y44005D01*
X91941Y44000D01*
X89059D01*
X89000Y44005D01*
X88765Y43986D01*
X88535Y43931D01*
X88317Y43841D01*
X88116Y43717D01*
X88115Y43717D01*
X87936Y43564D01*
X87898Y43519D01*
X84981Y40602D01*
X84936Y40564D01*
X84783Y40384D01*
X84659Y40183D01*
X84569Y39965D01*
X84514Y39735D01*
X84514Y39735D01*
X84495Y39500D01*
X84500Y39441D01*
Y37470D01*
X84493Y37478D01*
Y57987D01*
X84500Y57986D01*
X85206Y58042D01*
X85895Y58207D01*
X86549Y58478D01*
X87153Y58848D01*
X87692Y59308D01*
X88152Y59847D01*
X88522Y60451D01*
X88793Y61105D01*
X88958Y61794D01*
X89000Y62500D01*
X88958Y63206D01*
X88793Y63895D01*
X88522Y64549D01*
X88152Y65153D01*
X87692Y65692D01*
X87153Y66152D01*
X86549Y66522D01*
X85895Y66793D01*
X85206Y66958D01*
X84500Y67014D01*
X84493Y67013D01*
Y67987D01*
X84500Y67986D01*
X85206Y68042D01*
X85895Y68207D01*
X86549Y68478D01*
X87153Y68848D01*
X87692Y69308D01*
X88152Y69847D01*
X88522Y70451D01*
X88793Y71105D01*
X88958Y71794D01*
X89000Y72500D01*
X88958Y73206D01*
X88793Y73895D01*
X88522Y74549D01*
X88152Y75153D01*
X87692Y75692D01*
X87153Y76152D01*
X86549Y76522D01*
X85895Y76793D01*
X85206Y76958D01*
X84500Y77014D01*
X84493Y77013D01*
Y81000D01*
G37*
G36*
X80135Y37000D02*X71720D01*
Y38459D01*
X72022Y38951D01*
X72249Y39500D01*
X75135D01*
X75228Y39349D01*
X75514Y39014D01*
X75849Y38728D01*
X76225Y38497D01*
X76632Y38329D01*
X77061Y38226D01*
X77500Y38191D01*
X77939Y38226D01*
X78368Y38329D01*
X78775Y38497D01*
X79151Y38728D01*
X79486Y39014D01*
X79772Y39349D01*
X80003Y39725D01*
X80171Y40132D01*
X80274Y40561D01*
X80300Y41000D01*
X80274Y41439D01*
X80171Y41868D01*
X80003Y42275D01*
X79772Y42651D01*
X79486Y42986D01*
X79151Y43272D01*
X78775Y43503D01*
X78368Y43671D01*
X77939Y43774D01*
X77500Y43809D01*
X77061Y43774D01*
X76632Y43671D01*
X76225Y43503D01*
X75849Y43272D01*
X75514Y42986D01*
X75228Y42651D01*
X75135Y42500D01*
X72249D01*
X72022Y43049D01*
X71720Y43541D01*
Y48544D01*
X71771Y48583D01*
X71826Y48639D01*
X71870Y48704D01*
X72064Y49056D01*
X72221Y49426D01*
X72344Y49809D01*
X72433Y50200D01*
X72487Y50599D01*
X72504Y51000D01*
X72487Y51401D01*
X72433Y51800D01*
X72344Y52191D01*
X72221Y52574D01*
X72064Y52944D01*
X71874Y53298D01*
X71829Y53363D01*
X71774Y53420D01*
X71720Y53460D01*
Y58459D01*
X72022Y58951D01*
X72293Y59605D01*
X72458Y60294D01*
X72500Y61000D01*
X72458Y61706D01*
X72293Y62395D01*
X72022Y63049D01*
X71720Y63541D01*
Y81000D01*
X84493D01*
Y77013D01*
X83794Y76958D01*
X83105Y76793D01*
X82451Y76522D01*
X81847Y76152D01*
X81308Y75692D01*
X80848Y75153D01*
X80478Y74549D01*
X80207Y73895D01*
X80042Y73206D01*
X79986Y72500D01*
X80042Y71794D01*
X80207Y71105D01*
X80478Y70451D01*
X80848Y69847D01*
X81308Y69308D01*
X81847Y68848D01*
X82451Y68478D01*
X83105Y68207D01*
X83794Y68042D01*
X84493Y67987D01*
Y67013D01*
X83794Y66958D01*
X83105Y66793D01*
X82451Y66522D01*
X81847Y66152D01*
X81308Y65692D01*
X80848Y65153D01*
X80478Y64549D01*
X80207Y63895D01*
X80042Y63206D01*
X79986Y62500D01*
X80042Y61794D01*
X80207Y61105D01*
X80478Y60451D01*
X80848Y59847D01*
X81308Y59308D01*
X81847Y58848D01*
X82451Y58478D01*
X83105Y58207D01*
X83794Y58042D01*
X84493Y57987D01*
Y37478D01*
X84486Y37486D01*
X84151Y37772D01*
X83775Y38003D01*
X83368Y38171D01*
X82939Y38274D01*
X82500Y38309D01*
X82061Y38274D01*
X81632Y38171D01*
X81225Y38003D01*
X80849Y37772D01*
X80514Y37486D01*
X80228Y37151D01*
X80135Y37000D01*
G37*
G36*
X71720Y63541D02*X71652Y63653D01*
X71192Y64192D01*
X70653Y64652D01*
X70049Y65022D01*
X69395Y65293D01*
X68706Y65458D01*
X68000Y65514D01*
X67993Y65513D01*
Y81000D01*
X71720D01*
Y63541D01*
G37*
G36*
Y43541D02*X71652Y43653D01*
X71192Y44192D01*
X70653Y44652D01*
X70049Y45022D01*
X69395Y45293D01*
X68706Y45458D01*
X68000Y45514D01*
X67993Y45513D01*
Y46496D01*
X68000Y46496D01*
X68401Y46513D01*
X68800Y46567D01*
X69191Y46656D01*
X69574Y46779D01*
X69944Y46936D01*
X70298Y47126D01*
X70363Y47171D01*
X70420Y47226D01*
X70468Y47290D01*
X70504Y47360D01*
X70530Y47435D01*
X70544Y47513D01*
X70545Y47592D01*
X70533Y47671D01*
X70510Y47746D01*
X70475Y47817D01*
X70429Y47882D01*
X70374Y47939D01*
X70311Y47987D01*
X70241Y48024D01*
X70166Y48049D01*
X70088Y48063D01*
X70008Y48064D01*
X69930Y48052D01*
X69854Y48029D01*
X69784Y47993D01*
X69510Y47843D01*
X69223Y47721D01*
X68926Y47625D01*
X68621Y47556D01*
X68312Y47514D01*
X68000Y47500D01*
X67993Y47500D01*
Y54500D01*
X68000Y54500D01*
X68312Y54486D01*
X68621Y54444D01*
X68926Y54375D01*
X69223Y54279D01*
X69510Y54157D01*
X69786Y54010D01*
X69855Y53974D01*
X69931Y53951D01*
X70009Y53940D01*
X70087Y53941D01*
X70165Y53954D01*
X70239Y53980D01*
X70309Y54016D01*
X70372Y54064D01*
X70427Y54120D01*
X70472Y54184D01*
X70507Y54255D01*
X70530Y54330D01*
X70541Y54408D01*
X70540Y54487D01*
X70527Y54564D01*
X70501Y54639D01*
X70465Y54708D01*
X70417Y54771D01*
X70361Y54826D01*
X70296Y54870D01*
X69944Y55064D01*
X69574Y55221D01*
X69191Y55344D01*
X68800Y55433D01*
X68401Y55487D01*
X68000Y55504D01*
X67993Y55504D01*
Y56487D01*
X68000Y56486D01*
X68706Y56542D01*
X69395Y56707D01*
X70049Y56978D01*
X70653Y57348D01*
X71192Y57808D01*
X71652Y58347D01*
X71720Y58459D01*
Y53460D01*
X71710Y53468D01*
X71640Y53504D01*
X71565Y53530D01*
X71487Y53544D01*
X71408Y53545D01*
X71329Y53533D01*
X71254Y53510D01*
X71183Y53475D01*
X71118Y53429D01*
X71061Y53374D01*
X71013Y53311D01*
X70976Y53241D01*
X70951Y53166D01*
X70937Y53088D01*
X70936Y53008D01*
X70948Y52930D01*
X70971Y52854D01*
X71007Y52784D01*
X71157Y52510D01*
X71279Y52223D01*
X71375Y51926D01*
X71444Y51621D01*
X71486Y51312D01*
X71500Y51000D01*
X71486Y50688D01*
X71444Y50379D01*
X71375Y50074D01*
X71279Y49777D01*
X71157Y49490D01*
X71010Y49214D01*
X70974Y49145D01*
X70951Y49069D01*
X70940Y48991D01*
X70941Y48913D01*
X70954Y48835D01*
X70980Y48761D01*
X71016Y48691D01*
X71064Y48628D01*
X71120Y48573D01*
X71184Y48528D01*
X71255Y48493D01*
X71330Y48470D01*
X71408Y48459D01*
X71487Y48460D01*
X71564Y48473D01*
X71639Y48499D01*
X71708Y48535D01*
X71720Y48544D01*
Y43541D01*
G37*
G36*
Y37000D02*X70085D01*
X70653Y37348D01*
X71192Y37808D01*
X71652Y38347D01*
X71720Y38459D01*
Y37000D01*
G37*
G36*
X64280Y81000D02*X67993D01*
Y65513D01*
X67294Y65458D01*
X66605Y65293D01*
X65951Y65022D01*
X65347Y64652D01*
X64808Y64192D01*
X64348Y63653D01*
X64280Y63541D01*
Y81000D01*
G37*
G36*
X67993Y45513D02*X67294Y45458D01*
X66605Y45293D01*
X65951Y45022D01*
X65347Y44652D01*
X64808Y44192D01*
X64348Y43653D01*
X64280Y43541D01*
Y48540D01*
X64290Y48532D01*
X64360Y48496D01*
X64435Y48470D01*
X64513Y48456D01*
X64592Y48455D01*
X64671Y48467D01*
X64746Y48490D01*
X64817Y48525D01*
X64882Y48571D01*
X64939Y48626D01*
X64987Y48689D01*
X65024Y48759D01*
X65049Y48834D01*
X65063Y48912D01*
X65064Y48992D01*
X65052Y49070D01*
X65029Y49146D01*
X64993Y49216D01*
X64843Y49490D01*
X64721Y49777D01*
X64625Y50074D01*
X64556Y50379D01*
X64514Y50688D01*
X64500Y51000D01*
X64514Y51312D01*
X64556Y51621D01*
X64625Y51926D01*
X64721Y52223D01*
X64843Y52510D01*
X64990Y52786D01*
X65026Y52855D01*
X65049Y52931D01*
X65060Y53009D01*
X65059Y53087D01*
X65046Y53165D01*
X65020Y53239D01*
X64984Y53309D01*
X64936Y53372D01*
X64880Y53427D01*
X64816Y53472D01*
X64745Y53507D01*
X64670Y53530D01*
X64592Y53541D01*
X64513Y53540D01*
X64436Y53527D01*
X64361Y53501D01*
X64292Y53465D01*
X64280Y53456D01*
Y58459D01*
X64348Y58347D01*
X64808Y57808D01*
X65347Y57348D01*
X65951Y56978D01*
X66605Y56707D01*
X67294Y56542D01*
X67993Y56487D01*
Y55504D01*
X67599Y55487D01*
X67200Y55433D01*
X66809Y55344D01*
X66426Y55221D01*
X66056Y55064D01*
X65702Y54874D01*
X65637Y54829D01*
X65580Y54774D01*
X65532Y54710D01*
X65496Y54640D01*
X65470Y54565D01*
X65456Y54487D01*
X65455Y54408D01*
X65467Y54329D01*
X65490Y54254D01*
X65525Y54183D01*
X65571Y54118D01*
X65626Y54061D01*
X65689Y54013D01*
X65759Y53976D01*
X65834Y53951D01*
X65912Y53937D01*
X65992Y53936D01*
X66070Y53948D01*
X66146Y53971D01*
X66216Y54007D01*
X66490Y54157D01*
X66777Y54279D01*
X67074Y54375D01*
X67379Y54444D01*
X67688Y54486D01*
X67993Y54500D01*
Y47500D01*
X67688Y47514D01*
X67379Y47556D01*
X67074Y47625D01*
X66777Y47721D01*
X66490Y47843D01*
X66214Y47990D01*
X66145Y48026D01*
X66069Y48049D01*
X65991Y48060D01*
X65913Y48059D01*
X65835Y48046D01*
X65761Y48020D01*
X65691Y47984D01*
X65628Y47936D01*
X65573Y47880D01*
X65528Y47816D01*
X65493Y47745D01*
X65470Y47670D01*
X65459Y47592D01*
X65460Y47513D01*
X65473Y47436D01*
X65499Y47361D01*
X65535Y47292D01*
X65583Y47229D01*
X65639Y47174D01*
X65704Y47130D01*
X66056Y46936D01*
X66426Y46779D01*
X66809Y46656D01*
X67200Y46567D01*
X67599Y46513D01*
X67993Y46496D01*
Y45513D01*
G37*
G36*
X64280Y43541D02*X63978Y43049D01*
X63751Y42500D01*
X60831D01*
X61192Y42808D01*
X61652Y43347D01*
X62022Y43951D01*
X62293Y44605D01*
X62458Y45294D01*
X62500Y46000D01*
X62458Y46706D01*
X62293Y47395D01*
X62022Y48049D01*
X61652Y48653D01*
X61192Y49192D01*
X60653Y49652D01*
X60049Y50022D01*
X59395Y50293D01*
X58706Y50458D01*
X58000Y50514D01*
X57294Y50458D01*
X56605Y50293D01*
X55951Y50022D01*
X55347Y49652D01*
X54808Y49192D01*
X54348Y48653D01*
X53978Y48049D01*
X53707Y47395D01*
X53542Y46706D01*
X53486Y46000D01*
X53542Y45294D01*
X53707Y44605D01*
X53978Y43951D01*
X54348Y43347D01*
X54808Y42808D01*
X55169Y42500D01*
X32243D01*
Y54500D01*
X53751D01*
X53978Y53951D01*
X54348Y53347D01*
X54808Y52808D01*
X55347Y52348D01*
X55951Y51978D01*
X56605Y51707D01*
X57294Y51542D01*
X58000Y51486D01*
X58706Y51542D01*
X59395Y51707D01*
X60049Y51978D01*
X60653Y52348D01*
X61192Y52808D01*
X61652Y53347D01*
X62022Y53951D01*
X62293Y54605D01*
X62458Y55294D01*
X62500Y56000D01*
X62458Y56706D01*
X62293Y57395D01*
X62022Y58049D01*
X61652Y58653D01*
X61192Y59192D01*
X60653Y59652D01*
X60049Y60022D01*
X59395Y60293D01*
X58706Y60458D01*
X58000Y60514D01*
X57294Y60458D01*
X56605Y60293D01*
X55951Y60022D01*
X55347Y59652D01*
X54808Y59192D01*
X54348Y58653D01*
X53978Y58049D01*
X53751Y57500D01*
X32243D01*
Y60334D01*
X33000Y60275D01*
X34287Y60376D01*
X35542Y60677D01*
X36734Y61171D01*
X37835Y61846D01*
X38816Y62684D01*
X39654Y63665D01*
X40329Y64766D01*
X40823Y65958D01*
X41124Y67213D01*
X41200Y68500D01*
X41124Y69787D01*
X40823Y71042D01*
X40329Y72234D01*
X39654Y73335D01*
X38816Y74316D01*
X37835Y75154D01*
X36734Y75829D01*
X35542Y76323D01*
X34287Y76624D01*
X33000Y76725D01*
X32243Y76666D01*
Y81000D01*
X64280D01*
Y63541D01*
X63978Y63049D01*
X63707Y62395D01*
X63542Y61706D01*
X63486Y61000D01*
X63542Y60294D01*
X63707Y59605D01*
X63978Y58951D01*
X64280Y58459D01*
Y53456D01*
X64229Y53417D01*
X64174Y53361D01*
X64130Y53296D01*
X63936Y52944D01*
X63779Y52574D01*
X63656Y52191D01*
X63567Y51800D01*
X63513Y51401D01*
X63496Y51000D01*
X63513Y50599D01*
X63567Y50200D01*
X63656Y49809D01*
X63779Y49426D01*
X63936Y49056D01*
X64126Y48702D01*
X64171Y48637D01*
X64226Y48580D01*
X64280Y48540D01*
Y43541D01*
G37*
G36*
X10113Y81000D02*X32243D01*
Y76666D01*
X31713Y76624D01*
X30458Y76323D01*
X29266Y75829D01*
X28165Y75154D01*
X27184Y74316D01*
X26346Y73335D01*
X25671Y72234D01*
X25177Y71042D01*
X24876Y69787D01*
X24775Y68500D01*
X24876Y67213D01*
X25177Y65958D01*
X25671Y64766D01*
X26346Y63665D01*
X27184Y62684D01*
X28165Y61846D01*
X29266Y61171D01*
X30458Y60677D01*
X31713Y60376D01*
X32243Y60334D01*
Y57500D01*
X10749D01*
X10522Y58049D01*
X10152Y58653D01*
X10113Y58698D01*
Y63853D01*
X10156Y63860D01*
X10268Y63897D01*
X10373Y63952D01*
X10468Y64022D01*
X10551Y64106D01*
X10619Y64202D01*
X10670Y64308D01*
X10818Y64716D01*
X10922Y65137D01*
X10984Y65567D01*
X11005Y66000D01*
X10984Y66433D01*
X10922Y66863D01*
X10818Y67284D01*
X10675Y67694D01*
X10622Y67800D01*
X10553Y67896D01*
X10470Y67981D01*
X10375Y68051D01*
X10269Y68106D01*
X10157Y68143D01*
X10113Y68151D01*
Y71630D01*
X10183Y71659D01*
X10384Y71783D01*
X10564Y71936D01*
X10717Y72116D01*
X10841Y72317D01*
X10931Y72535D01*
X10986Y72765D01*
X11000Y73000D01*
X10986Y79235D01*
X10931Y79465D01*
X10841Y79683D01*
X10717Y79884D01*
X10564Y80064D01*
X10384Y80217D01*
X10183Y80341D01*
X10113Y80370D01*
Y81000D01*
G37*
G36*
Y58698D02*X9692Y59192D01*
X9153Y59652D01*
X8549Y60022D01*
X7895Y60293D01*
X7206Y60458D01*
X6500Y60514D01*
X6493Y60513D01*
Y61495D01*
X6500Y61495D01*
X6933Y61516D01*
X7363Y61578D01*
X7784Y61682D01*
X8194Y61825D01*
X8300Y61878D01*
X8396Y61947D01*
X8481Y62030D01*
X8551Y62125D01*
X8606Y62231D01*
X8643Y62343D01*
X8663Y62460D01*
X8664Y62579D01*
X8646Y62696D01*
X8610Y62809D01*
X8557Y62915D01*
X8488Y63012D01*
X8405Y63096D01*
X8309Y63167D01*
X8204Y63221D01*
X8092Y63259D01*
X7975Y63278D01*
X7856Y63279D01*
X7739Y63261D01*
X7626Y63223D01*
X7355Y63124D01*
X7075Y63056D01*
X6789Y63014D01*
X6500Y63000D01*
X6493Y63000D01*
Y69000D01*
X6500Y69000D01*
X6789Y68986D01*
X7075Y68944D01*
X7355Y68876D01*
X7628Y68780D01*
X7739Y68742D01*
X7856Y68725D01*
X7974Y68725D01*
X8091Y68745D01*
X8203Y68782D01*
X8307Y68836D01*
X8402Y68906D01*
X8485Y68991D01*
X8554Y69087D01*
X8607Y69192D01*
X8643Y69305D01*
X8660Y69421D01*
X8659Y69539D01*
X8640Y69656D01*
X8603Y69768D01*
X8548Y69873D01*
X8478Y69968D01*
X8394Y70051D01*
X8298Y70119D01*
X8192Y70170D01*
X7784Y70318D01*
X7363Y70422D01*
X6933Y70484D01*
X6500Y70505D01*
X6493Y70505D01*
Y71507D01*
X9735Y71514D01*
X9965Y71569D01*
X10113Y71630D01*
Y68151D01*
X10040Y68163D01*
X9921Y68164D01*
X9804Y68146D01*
X9691Y68110D01*
X9585Y68057D01*
X9488Y67988D01*
X9404Y67905D01*
X9333Y67809D01*
X9279Y67704D01*
X9241Y67592D01*
X9222Y67475D01*
X9221Y67356D01*
X9239Y67239D01*
X9277Y67126D01*
X9376Y66855D01*
X9444Y66575D01*
X9486Y66289D01*
X9500Y66000D01*
X9486Y65711D01*
X9444Y65425D01*
X9376Y65145D01*
X9280Y64872D01*
X9242Y64761D01*
X9225Y64644D01*
X9225Y64526D01*
X9245Y64409D01*
X9282Y64297D01*
X9336Y64193D01*
X9406Y64098D01*
X9491Y64015D01*
X9587Y63946D01*
X9692Y63893D01*
X9805Y63857D01*
X9921Y63840D01*
X10039Y63841D01*
X10113Y63853D01*
Y58698D01*
G37*
G36*
X6493Y81000D02*X10113D01*
Y80370D01*
X9965Y80431D01*
X9735Y80486D01*
X9500Y80500D01*
X6493Y80493D01*
Y81000D01*
G37*
G36*
Y11487D02*X6500Y11486D01*
X7206Y11542D01*
X7895Y11707D01*
X8549Y11978D01*
X9153Y12348D01*
X9692Y12808D01*
X10152Y13347D01*
X10522Y13951D01*
X10749Y14500D01*
X32243D01*
Y8000D01*
X10542D01*
X10522Y8049D01*
X10152Y8653D01*
X9692Y9192D01*
X9153Y9652D01*
X8549Y10022D01*
X7895Y10293D01*
X7206Y10458D01*
X6500Y10514D01*
X6493Y10513D01*
Y11487D01*
G37*
G36*
Y21487D02*X6500Y21486D01*
X7206Y21542D01*
X7895Y21707D01*
X8549Y21978D01*
X9153Y22348D01*
X9692Y22808D01*
X10152Y23347D01*
X10522Y23951D01*
X10793Y24605D01*
X10958Y25294D01*
X10992Y25871D01*
X22621Y37500D01*
X32243D01*
Y36666D01*
X31713Y36624D01*
X30458Y36323D01*
X29266Y35829D01*
X28165Y35154D01*
X27184Y34316D01*
X26346Y33335D01*
X25671Y32234D01*
X25177Y31042D01*
X24876Y29787D01*
X24775Y28500D01*
X24876Y27213D01*
X25177Y25958D01*
X25671Y24766D01*
X26346Y23665D01*
X27184Y22684D01*
X28165Y21846D01*
X29266Y21171D01*
X30458Y20677D01*
X31713Y20376D01*
X32243Y20334D01*
Y17500D01*
X10749D01*
X10522Y18049D01*
X10152Y18653D01*
X9692Y19192D01*
X9153Y19652D01*
X8549Y20022D01*
X7895Y20293D01*
X7206Y20458D01*
X6500Y20514D01*
X6493Y20513D01*
Y21487D01*
G37*
G36*
Y31487D02*X6500Y31486D01*
X7206Y31542D01*
X7895Y31707D01*
X8549Y31978D01*
X9153Y32348D01*
X9692Y32808D01*
X10152Y33347D01*
X10522Y33951D01*
X10749Y34500D01*
X15379D01*
X9866Y28988D01*
X9692Y29192D01*
X9153Y29652D01*
X8549Y30022D01*
X7895Y30293D01*
X7206Y30458D01*
X6500Y30514D01*
X6493Y30513D01*
Y31487D01*
G37*
G36*
X32243Y42500D02*X21059D01*
X21000Y42505D01*
X20765Y42486D01*
X20535Y42431D01*
X20317Y42341D01*
X20116Y42217D01*
X20115Y42217D01*
X19936Y42064D01*
X19898Y42019D01*
X15379Y37500D01*
X10749D01*
X10522Y38049D01*
X10152Y38653D01*
X9692Y39192D01*
X9153Y39652D01*
X8549Y40022D01*
X7895Y40293D01*
X7206Y40458D01*
X6500Y40514D01*
X6493Y40513D01*
Y41487D01*
X6500Y41486D01*
X7206Y41542D01*
X7895Y41707D01*
X8549Y41978D01*
X9153Y42348D01*
X9692Y42808D01*
X10152Y43347D01*
X10522Y43951D01*
X10793Y44605D01*
X10958Y45294D01*
X11000Y46000D01*
X10958Y46706D01*
X10793Y47395D01*
X10522Y48049D01*
X10152Y48653D01*
X9692Y49192D01*
X9153Y49652D01*
X8549Y50022D01*
X7895Y50293D01*
X7206Y50458D01*
X6500Y50514D01*
X6493Y50513D01*
Y51487D01*
X6500Y51486D01*
X7206Y51542D01*
X7895Y51707D01*
X8549Y51978D01*
X9153Y52348D01*
X9692Y52808D01*
X10152Y53347D01*
X10522Y53951D01*
X10749Y54500D01*
X32243D01*
Y42500D01*
G37*
G36*
X2887Y53302D02*X3308Y52808D01*
X3847Y52348D01*
X4451Y51978D01*
X5105Y51707D01*
X5794Y51542D01*
X6493Y51487D01*
Y50513D01*
X5794Y50458D01*
X5105Y50293D01*
X4451Y50022D01*
X3847Y49652D01*
X3308Y49192D01*
X2887Y48698D01*
Y53302D01*
G37*
G36*
Y71630D02*X3035Y71569D01*
X3265Y71514D01*
X3500Y71500D01*
X6493Y71507D01*
Y70505D01*
X6067Y70484D01*
X5637Y70422D01*
X5216Y70318D01*
X4806Y70175D01*
X4700Y70122D01*
X4604Y70053D01*
X4519Y69970D01*
X4449Y69875D01*
X4394Y69769D01*
X4357Y69657D01*
X4337Y69540D01*
X4336Y69421D01*
X4354Y69304D01*
X4390Y69191D01*
X4443Y69085D01*
X4512Y68988D01*
X4595Y68904D01*
X4691Y68833D01*
X4796Y68779D01*
X4908Y68741D01*
X5025Y68722D01*
X5144Y68721D01*
X5261Y68739D01*
X5374Y68777D01*
X5645Y68876D01*
X5925Y68944D01*
X6211Y68986D01*
X6493Y69000D01*
Y63000D01*
X6211Y63014D01*
X5925Y63056D01*
X5645Y63124D01*
X5372Y63220D01*
X5261Y63258D01*
X5144Y63275D01*
X5026Y63275D01*
X4909Y63255D01*
X4797Y63218D01*
X4693Y63164D01*
X4598Y63094D01*
X4515Y63009D01*
X4446Y62913D01*
X4393Y62808D01*
X4357Y62695D01*
X4340Y62579D01*
X4341Y62461D01*
X4360Y62344D01*
X4397Y62232D01*
X4452Y62127D01*
X4522Y62032D01*
X4606Y61949D01*
X4702Y61881D01*
X4808Y61830D01*
X5216Y61682D01*
X5637Y61578D01*
X6067Y61516D01*
X6493Y61495D01*
Y60513D01*
X5794Y60458D01*
X5105Y60293D01*
X4451Y60022D01*
X3847Y59652D01*
X3308Y59192D01*
X2887Y58698D01*
Y63849D01*
X2960Y63837D01*
X3079Y63836D01*
X3196Y63854D01*
X3309Y63890D01*
X3415Y63943D01*
X3512Y64012D01*
X3596Y64095D01*
X3667Y64191D01*
X3721Y64296D01*
X3759Y64408D01*
X3778Y64525D01*
X3779Y64644D01*
X3761Y64761D01*
X3723Y64874D01*
X3624Y65145D01*
X3556Y65425D01*
X3514Y65711D01*
X3500Y66000D01*
X3514Y66289D01*
X3556Y66575D01*
X3624Y66855D01*
X3720Y67128D01*
X3758Y67239D01*
X3775Y67356D01*
X3775Y67474D01*
X3755Y67591D01*
X3718Y67703D01*
X3664Y67807D01*
X3594Y67902D01*
X3509Y67985D01*
X3413Y68054D01*
X3308Y68107D01*
X3195Y68143D01*
X3079Y68160D01*
X2961Y68159D01*
X2887Y68147D01*
Y71630D01*
G37*
G36*
Y81000D02*X6493D01*
Y80493D01*
X3265Y80486D01*
X3035Y80431D01*
X2887Y80370D01*
Y81000D01*
G37*
G36*
Y13302D02*X3308Y12808D01*
X3847Y12348D01*
X4451Y11978D01*
X5105Y11707D01*
X5794Y11542D01*
X6493Y11487D01*
Y10513D01*
X5794Y10458D01*
X5105Y10293D01*
X4451Y10022D01*
X3847Y9652D01*
X3308Y9192D01*
X2887Y8698D01*
Y13302D01*
G37*
G36*
Y23302D02*X3308Y22808D01*
X3847Y22348D01*
X4451Y21978D01*
X5105Y21707D01*
X5794Y21542D01*
X6493Y21487D01*
Y20513D01*
X5794Y20458D01*
X5105Y20293D01*
X4451Y20022D01*
X3847Y19652D01*
X3308Y19192D01*
X2887Y18698D01*
Y23302D01*
G37*
G36*
Y33302D02*X3308Y32808D01*
X3847Y32348D01*
X4451Y31978D01*
X5105Y31707D01*
X5794Y31542D01*
X6493Y31487D01*
Y30513D01*
X5794Y30458D01*
X5105Y30293D01*
X4451Y30022D01*
X3847Y29652D01*
X3308Y29192D01*
X2887Y28698D01*
Y33302D01*
G37*
G36*
X6493Y40513D02*X5794Y40458D01*
X5105Y40293D01*
X4451Y40022D01*
X3847Y39652D01*
X3308Y39192D01*
X2887Y38698D01*
Y43302D01*
X3308Y42808D01*
X3847Y42348D01*
X4451Y41978D01*
X5105Y41707D01*
X5794Y41542D01*
X6493Y41487D01*
Y40513D01*
G37*
G36*
X2887Y38698D02*X2848Y38653D01*
X2478Y38049D01*
X2207Y37395D01*
X2042Y36706D01*
X1986Y36000D01*
X2042Y35294D01*
X2207Y34605D01*
X2478Y33951D01*
X2848Y33347D01*
X2887Y33302D01*
Y28698D01*
X2848Y28653D01*
X2478Y28049D01*
X2207Y27395D01*
X2042Y26706D01*
X1986Y26000D01*
X2042Y25294D01*
X2207Y24605D01*
X2478Y23951D01*
X2848Y23347D01*
X2887Y23302D01*
Y18698D01*
X2848Y18653D01*
X2478Y18049D01*
X2207Y17395D01*
X2042Y16706D01*
X1986Y16000D01*
X2042Y15294D01*
X2207Y14605D01*
X2478Y13951D01*
X2848Y13347D01*
X2887Y13302D01*
Y8698D01*
X2848Y8653D01*
X2478Y8049D01*
X2458Y8000D01*
X1000D01*
Y81000D01*
X2887D01*
Y80370D01*
X2817Y80341D01*
X2616Y80217D01*
X2436Y80064D01*
X2283Y79884D01*
X2159Y79683D01*
X2069Y79465D01*
X2014Y79235D01*
X2000Y79000D01*
X2014Y72765D01*
X2069Y72535D01*
X2159Y72317D01*
X2283Y72116D01*
X2436Y71936D01*
X2616Y71783D01*
X2817Y71659D01*
X2887Y71630D01*
Y68147D01*
X2844Y68140D01*
X2732Y68103D01*
X2627Y68048D01*
X2532Y67978D01*
X2449Y67894D01*
X2381Y67798D01*
X2330Y67692D01*
X2182Y67284D01*
X2078Y66863D01*
X2016Y66433D01*
X1995Y66000D01*
X2016Y65567D01*
X2078Y65137D01*
X2182Y64716D01*
X2325Y64306D01*
X2378Y64200D01*
X2447Y64104D01*
X2530Y64019D01*
X2625Y63949D01*
X2731Y63894D01*
X2843Y63857D01*
X2887Y63849D01*
Y58698D01*
X2848Y58653D01*
X2478Y58049D01*
X2207Y57395D01*
X2042Y56706D01*
X1986Y56000D01*
X2042Y55294D01*
X2207Y54605D01*
X2478Y53951D01*
X2848Y53347D01*
X2887Y53302D01*
Y48698D01*
X2848Y48653D01*
X2478Y48049D01*
X2207Y47395D01*
X2042Y46706D01*
X1986Y46000D01*
X2042Y45294D01*
X2207Y44605D01*
X2478Y43951D01*
X2848Y43347D01*
X2887Y43302D01*
Y38698D01*
G37*
G36*
X111000Y7000D02*X101613D01*
Y10853D01*
X101656Y10860D01*
X101768Y10897D01*
X101873Y10952D01*
X101968Y11022D01*
X102051Y11106D01*
X102119Y11202D01*
X102170Y11308D01*
X102318Y11716D01*
X102422Y12137D01*
X102484Y12567D01*
X102505Y13000D01*
X102484Y13433D01*
X102422Y13863D01*
X102318Y14284D01*
X102175Y14694D01*
X102122Y14800D01*
X102053Y14896D01*
X101970Y14981D01*
X101875Y15051D01*
X101769Y15106D01*
X101657Y15143D01*
X101613Y15151D01*
Y37500D01*
X111000D01*
Y7000D01*
G37*
G36*
X101613D02*X98002D01*
Y8495D01*
X98433Y8516D01*
X98863Y8578D01*
X99284Y8682D01*
X99694Y8825D01*
X99800Y8878D01*
X99896Y8947D01*
X99981Y9030D01*
X100051Y9125D01*
X100106Y9231D01*
X100143Y9343D01*
X100163Y9460D01*
X100164Y9579D01*
X100146Y9696D01*
X100110Y9809D01*
X100057Y9915D01*
X99988Y10012D01*
X99905Y10096D01*
X99809Y10167D01*
X99704Y10221D01*
X99592Y10259D01*
X99475Y10278D01*
X99356Y10279D01*
X99239Y10261D01*
X99126Y10223D01*
X98855Y10124D01*
X98575Y10056D01*
X98289Y10014D01*
X98002Y10000D01*
Y16000D01*
X98289Y15986D01*
X98575Y15944D01*
X98855Y15876D01*
X99128Y15780D01*
X99239Y15742D01*
X99356Y15725D01*
X99474Y15725D01*
X99591Y15745D01*
X99703Y15782D01*
X99807Y15836D01*
X99902Y15906D01*
X99985Y15991D01*
X100054Y16087D01*
X100107Y16192D01*
X100143Y16305D01*
X100160Y16421D01*
X100159Y16539D01*
X100140Y16656D01*
X100103Y16768D01*
X100048Y16873D01*
X99978Y16968D01*
X99894Y17051D01*
X99798Y17119D01*
X99692Y17170D01*
X99284Y17318D01*
X98863Y17422D01*
X98433Y17484D01*
X98002Y17505D01*
Y37032D01*
X98272Y37349D01*
X98365Y37500D01*
X101613D01*
Y15151D01*
X101540Y15163D01*
X101421Y15164D01*
X101304Y15146D01*
X101191Y15110D01*
X101085Y15057D01*
X100988Y14988D01*
X100904Y14905D01*
X100833Y14809D01*
X100779Y14704D01*
X100741Y14592D01*
X100722Y14475D01*
X100721Y14356D01*
X100739Y14239D01*
X100777Y14126D01*
X100876Y13855D01*
X100944Y13575D01*
X100986Y13289D01*
X101000Y13000D01*
X100986Y12711D01*
X100944Y12425D01*
X100876Y12145D01*
X100780Y11872D01*
X100742Y11761D01*
X100725Y11644D01*
X100725Y11526D01*
X100745Y11409D01*
X100782Y11297D01*
X100836Y11193D01*
X100906Y11098D01*
X100991Y11015D01*
X101087Y10946D01*
X101192Y10893D01*
X101305Y10857D01*
X101421Y10840D01*
X101539Y10841D01*
X101613Y10853D01*
Y7000D01*
G37*
G36*
X98002D02*X94387D01*
Y10849D01*
X94460Y10837D01*
X94579Y10836D01*
X94696Y10854D01*
X94809Y10890D01*
X94915Y10943D01*
X95012Y11012D01*
X95096Y11095D01*
X95167Y11191D01*
X95221Y11296D01*
X95259Y11408D01*
X95278Y11525D01*
X95279Y11644D01*
X95261Y11761D01*
X95223Y11874D01*
X95124Y12145D01*
X95056Y12425D01*
X95014Y12711D01*
X95000Y13000D01*
X95014Y13289D01*
X95056Y13575D01*
X95124Y13855D01*
X95220Y14128D01*
X95258Y14239D01*
X95275Y14356D01*
X95275Y14474D01*
X95255Y14591D01*
X95218Y14703D01*
X95164Y14807D01*
X95094Y14902D01*
X95009Y14985D01*
X94913Y15054D01*
X94808Y15107D01*
X94695Y15143D01*
X94579Y15160D01*
X94461Y15159D01*
X94387Y15147D01*
Y36705D01*
X94725Y36497D01*
X95132Y36329D01*
X95561Y36226D01*
X96000Y36191D01*
X96439Y36226D01*
X96868Y36329D01*
X97275Y36497D01*
X97651Y36728D01*
X97986Y37014D01*
X98002Y37032D01*
Y17505D01*
X98000Y17505D01*
X97567Y17484D01*
X97137Y17422D01*
X96716Y17318D01*
X96306Y17175D01*
X96200Y17122D01*
X96104Y17053D01*
X96019Y16970D01*
X95949Y16875D01*
X95894Y16769D01*
X95857Y16657D01*
X95837Y16540D01*
X95836Y16421D01*
X95854Y16304D01*
X95890Y16191D01*
X95943Y16085D01*
X96012Y15988D01*
X96095Y15904D01*
X96191Y15833D01*
X96296Y15779D01*
X96408Y15741D01*
X96525Y15722D01*
X96644Y15721D01*
X96761Y15739D01*
X96874Y15777D01*
X97145Y15876D01*
X97425Y15944D01*
X97711Y15986D01*
X98000Y16000D01*
X98002Y16000D01*
Y10000D01*
X98000Y10000D01*
X97711Y10014D01*
X97425Y10056D01*
X97145Y10124D01*
X96872Y10220D01*
X96761Y10258D01*
X96644Y10275D01*
X96526Y10275D01*
X96409Y10255D01*
X96297Y10218D01*
X96193Y10164D01*
X96098Y10094D01*
X96015Y10009D01*
X95946Y9913D01*
X95893Y9808D01*
X95857Y9695D01*
X95840Y9579D01*
X95841Y9461D01*
X95860Y9344D01*
X95897Y9232D01*
X95952Y9127D01*
X96022Y9032D01*
X96106Y8949D01*
X96202Y8881D01*
X96308Y8830D01*
X96716Y8682D01*
X97137Y8578D01*
X97567Y8516D01*
X98000Y8495D01*
X98002Y8495D01*
Y7000D01*
G37*
G36*
X94387D02*X87993D01*
Y8487D01*
X88000Y8486D01*
X88706Y8542D01*
X89395Y8707D01*
X90049Y8978D01*
X90653Y9348D01*
X91192Y9808D01*
X91652Y10347D01*
X92022Y10951D01*
X92293Y11605D01*
X92458Y12294D01*
X92500Y13000D01*
X92458Y13706D01*
X92293Y14395D01*
X92022Y15049D01*
X91652Y15653D01*
X91192Y16192D01*
X90653Y16652D01*
X90049Y17022D01*
X89395Y17293D01*
X88706Y17458D01*
X88000Y17514D01*
X87993Y17513D01*
Y19022D01*
X88272Y19349D01*
X88503Y19725D01*
X88671Y20132D01*
X88774Y20561D01*
X88800Y21000D01*
X88774Y21439D01*
X88671Y21868D01*
X88503Y22275D01*
X88272Y22651D01*
X87993Y22978D01*
Y25872D01*
X91519Y29398D01*
X91564Y29436D01*
X91717Y29615D01*
X91717Y29616D01*
X91841Y29817D01*
X91931Y30035D01*
X91986Y30265D01*
X92005Y30500D01*
X92000Y30559D01*
Y36635D01*
X92151Y36728D01*
X92486Y37014D01*
X92772Y37349D01*
X93003Y37725D01*
X93171Y38132D01*
X93250Y38460D01*
X93329Y38132D01*
X93497Y37725D01*
X93728Y37349D01*
X94014Y37014D01*
X94349Y36728D01*
X94387Y36705D01*
Y15147D01*
X94344Y15140D01*
X94232Y15103D01*
X94127Y15048D01*
X94032Y14978D01*
X93949Y14894D01*
X93881Y14798D01*
X93830Y14692D01*
X93682Y14284D01*
X93578Y13863D01*
X93516Y13433D01*
X93495Y13000D01*
X93516Y12567D01*
X93578Y12137D01*
X93682Y11716D01*
X93825Y11306D01*
X93878Y11200D01*
X93947Y11104D01*
X94030Y11019D01*
X94125Y10949D01*
X94231Y10894D01*
X94343Y10857D01*
X94387Y10849D01*
Y7000D01*
G37*
G36*
X87993Y22978D02*X87986Y22986D01*
X87651Y23272D01*
X87275Y23503D01*
X86868Y23671D01*
X86439Y23774D01*
X86000Y23809D01*
X85924Y23803D01*
X87993Y25872D01*
Y22978D01*
G37*
G36*
Y7000D02*X75000D01*
Y8500D01*
X81235Y8514D01*
X81465Y8569D01*
X81683Y8659D01*
X81884Y8783D01*
X82064Y8936D01*
X82217Y9116D01*
X82341Y9317D01*
X82431Y9535D01*
X82486Y9765D01*
X82500Y10000D01*
X82486Y16235D01*
X82431Y16465D01*
X82341Y16683D01*
X82217Y16884D01*
X82064Y17064D01*
X81884Y17217D01*
X81683Y17341D01*
X81465Y17431D01*
X81235Y17486D01*
X81000Y17500D01*
X75000Y17487D01*
Y19000D01*
X84030D01*
X84349Y18728D01*
X84725Y18497D01*
X85132Y18329D01*
X85561Y18226D01*
X86000Y18191D01*
X86439Y18226D01*
X86868Y18329D01*
X87275Y18497D01*
X87651Y18728D01*
X87986Y19014D01*
X87993Y19022D01*
Y17513D01*
X87294Y17458D01*
X86605Y17293D01*
X85951Y17022D01*
X85347Y16652D01*
X84808Y16192D01*
X84348Y15653D01*
X83978Y15049D01*
X83707Y14395D01*
X83542Y13706D01*
X83486Y13000D01*
X83542Y12294D01*
X83707Y11605D01*
X83978Y10951D01*
X84348Y10347D01*
X84808Y9808D01*
X85347Y9348D01*
X85951Y8978D01*
X86605Y8707D01*
X87294Y8542D01*
X87993Y8487D01*
Y7000D01*
G37*
G36*
X71500Y5000D02*X64613D01*
Y10853D01*
X64656Y10860D01*
X64768Y10897D01*
X64873Y10952D01*
X64968Y11022D01*
X65051Y11106D01*
X65119Y11202D01*
X65170Y11308D01*
X65318Y11716D01*
X65422Y12137D01*
X65484Y12567D01*
X65505Y13000D01*
X65484Y13433D01*
X65422Y13863D01*
X65318Y14284D01*
X65175Y14694D01*
X65122Y14800D01*
X65053Y14896D01*
X64970Y14981D01*
X64875Y15051D01*
X64769Y15106D01*
X64657Y15143D01*
X64613Y15151D01*
Y19000D01*
X71500D01*
Y5000D01*
G37*
G36*
X64613D02*X61002D01*
Y8495D01*
X61433Y8516D01*
X61863Y8578D01*
X62284Y8682D01*
X62694Y8825D01*
X62800Y8878D01*
X62896Y8947D01*
X62981Y9030D01*
X63051Y9125D01*
X63106Y9231D01*
X63143Y9343D01*
X63163Y9460D01*
X63164Y9579D01*
X63146Y9696D01*
X63110Y9809D01*
X63057Y9915D01*
X62988Y10012D01*
X62905Y10096D01*
X62809Y10167D01*
X62704Y10221D01*
X62592Y10259D01*
X62475Y10278D01*
X62356Y10279D01*
X62239Y10261D01*
X62126Y10223D01*
X61855Y10124D01*
X61575Y10056D01*
X61289Y10014D01*
X61002Y10000D01*
Y16000D01*
X61289Y15986D01*
X61575Y15944D01*
X61855Y15876D01*
X62128Y15780D01*
X62239Y15742D01*
X62356Y15725D01*
X62474Y15725D01*
X62591Y15745D01*
X62703Y15782D01*
X62807Y15836D01*
X62902Y15906D01*
X62985Y15991D01*
X63054Y16087D01*
X63107Y16192D01*
X63143Y16305D01*
X63160Y16421D01*
X63159Y16539D01*
X63140Y16656D01*
X63103Y16768D01*
X63048Y16873D01*
X62978Y16968D01*
X62894Y17051D01*
X62798Y17119D01*
X62692Y17170D01*
X62284Y17318D01*
X61863Y17422D01*
X61433Y17484D01*
X61002Y17505D01*
Y19000D01*
X64613D01*
Y15151D01*
X64540Y15163D01*
X64421Y15164D01*
X64304Y15146D01*
X64191Y15110D01*
X64085Y15057D01*
X63988Y14988D01*
X63904Y14905D01*
X63833Y14809D01*
X63779Y14704D01*
X63741Y14592D01*
X63722Y14475D01*
X63721Y14356D01*
X63739Y14239D01*
X63777Y14126D01*
X63876Y13855D01*
X63944Y13575D01*
X63986Y13289D01*
X64000Y13000D01*
X63986Y12711D01*
X63944Y12425D01*
X63876Y12145D01*
X63780Y11872D01*
X63742Y11761D01*
X63725Y11644D01*
X63725Y11526D01*
X63745Y11409D01*
X63782Y11297D01*
X63836Y11193D01*
X63906Y11098D01*
X63991Y11015D01*
X64087Y10946D01*
X64192Y10893D01*
X64305Y10857D01*
X64421Y10840D01*
X64539Y10841D01*
X64613Y10853D01*
Y5000D01*
G37*
G36*
X61002D02*X57387D01*
Y10849D01*
X57460Y10837D01*
X57579Y10836D01*
X57696Y10854D01*
X57809Y10890D01*
X57915Y10943D01*
X58012Y11012D01*
X58096Y11095D01*
X58167Y11191D01*
X58221Y11296D01*
X58259Y11408D01*
X58278Y11525D01*
X58279Y11644D01*
X58261Y11761D01*
X58223Y11874D01*
X58124Y12145D01*
X58056Y12425D01*
X58014Y12711D01*
X58000Y13000D01*
X58014Y13289D01*
X58056Y13575D01*
X58124Y13855D01*
X58220Y14128D01*
X58258Y14239D01*
X58275Y14356D01*
X58275Y14474D01*
X58255Y14591D01*
X58218Y14703D01*
X58164Y14807D01*
X58094Y14902D01*
X58009Y14985D01*
X57913Y15054D01*
X57808Y15107D01*
X57695Y15143D01*
X57579Y15160D01*
X57461Y15159D01*
X57387Y15147D01*
Y19000D01*
X61002D01*
Y17505D01*
X61000Y17505D01*
X60567Y17484D01*
X60137Y17422D01*
X59716Y17318D01*
X59306Y17175D01*
X59200Y17122D01*
X59104Y17053D01*
X59019Y16970D01*
X58949Y16875D01*
X58894Y16769D01*
X58857Y16657D01*
X58837Y16540D01*
X58836Y16421D01*
X58854Y16304D01*
X58890Y16191D01*
X58943Y16085D01*
X59012Y15988D01*
X59095Y15904D01*
X59191Y15833D01*
X59296Y15779D01*
X59408Y15741D01*
X59525Y15722D01*
X59644Y15721D01*
X59761Y15739D01*
X59874Y15777D01*
X60145Y15876D01*
X60425Y15944D01*
X60711Y15986D01*
X61000Y16000D01*
X61002Y16000D01*
Y10000D01*
X61000Y10000D01*
X60711Y10014D01*
X60425Y10056D01*
X60145Y10124D01*
X59872Y10220D01*
X59761Y10258D01*
X59644Y10275D01*
X59526Y10275D01*
X59409Y10255D01*
X59297Y10218D01*
X59193Y10164D01*
X59098Y10094D01*
X59015Y10009D01*
X58946Y9913D01*
X58893Y9808D01*
X58857Y9695D01*
X58840Y9579D01*
X58841Y9461D01*
X58860Y9344D01*
X58897Y9232D01*
X58952Y9127D01*
X59022Y9032D01*
X59106Y8949D01*
X59202Y8881D01*
X59308Y8830D01*
X59716Y8682D01*
X60137Y8578D01*
X60567Y8516D01*
X61000Y8495D01*
X61002Y8495D01*
Y5000D01*
G37*
G36*
X57387D02*X51000D01*
Y8486D01*
X51706Y8542D01*
X52395Y8707D01*
X53049Y8978D01*
X53653Y9348D01*
X54192Y9808D01*
X54652Y10347D01*
X55022Y10951D01*
X55293Y11605D01*
X55458Y12294D01*
X55500Y13000D01*
X55458Y13706D01*
X55293Y14395D01*
X55022Y15049D01*
X54652Y15653D01*
X54192Y16192D01*
X53653Y16652D01*
X53049Y17022D01*
X52500Y17249D01*
Y18379D01*
X53121Y19000D01*
X57387D01*
Y15147D01*
X57344Y15140D01*
X57232Y15103D01*
X57127Y15048D01*
X57032Y14978D01*
X56949Y14894D01*
X56881Y14798D01*
X56830Y14692D01*
X56682Y14284D01*
X56578Y13863D01*
X56516Y13433D01*
X56495Y13000D01*
X56516Y12567D01*
X56578Y12137D01*
X56682Y11716D01*
X56825Y11306D01*
X56878Y11200D01*
X56947Y11104D01*
X57030Y11019D01*
X57125Y10949D01*
X57231Y10894D01*
X57343Y10857D01*
X57387Y10849D01*
Y5000D01*
G37*
G36*
X128500Y7500D02*X108412D01*
Y24412D01*
X128500D01*
Y7500D01*
G37*
G36*
X113000Y40500D02*Y81000D01*
X128500D01*
Y42865D01*
X128275Y43003D01*
X127868Y43171D01*
X127439Y43274D01*
X127000Y43309D01*
X126561Y43274D01*
X126132Y43171D01*
X125725Y43003D01*
X125349Y42772D01*
X125014Y42486D01*
X124728Y42151D01*
X124497Y41775D01*
X124329Y41368D01*
X124226Y40939D01*
X124191Y40500D01*
X124000D01*
X124000Y40500D01*
X113000D01*
G37*
G36*
X153500Y81000D02*X158500D01*
Y63500D01*
X153500D01*
Y71507D01*
X156735Y71514D01*
X156965Y71569D01*
X157183Y71659D01*
X157384Y71783D01*
X157564Y71936D01*
X157717Y72116D01*
X157841Y72317D01*
X157931Y72535D01*
X157986Y72765D01*
X158000Y73000D01*
X157986Y79235D01*
X157931Y79465D01*
X157841Y79683D01*
X157717Y79884D01*
X157564Y80064D01*
X157384Y80217D01*
X157183Y80341D01*
X156965Y80431D01*
X156735Y80486D01*
X156500Y80500D01*
X153500Y80493D01*
Y81000D01*
G37*
G36*
X143493D02*X153500D01*
Y80493D01*
X150265Y80486D01*
X150035Y80431D01*
X149817Y80341D01*
X149616Y80217D01*
X149436Y80064D01*
X149283Y79884D01*
X149159Y79683D01*
X149069Y79465D01*
X149014Y79235D01*
X149000Y79000D01*
X149014Y72765D01*
X149069Y72535D01*
X149159Y72317D01*
X149283Y72116D01*
X149436Y71936D01*
X149616Y71783D01*
X149817Y71659D01*
X150035Y71569D01*
X150265Y71514D01*
X150500Y71500D01*
X153500Y71507D01*
Y63500D01*
X143493D01*
Y71487D01*
X143500Y71486D01*
X144206Y71542D01*
X144895Y71707D01*
X145549Y71978D01*
X146153Y72348D01*
X146692Y72808D01*
X147152Y73347D01*
X147522Y73951D01*
X147793Y74605D01*
X147958Y75294D01*
X148000Y76000D01*
X147958Y76706D01*
X147793Y77395D01*
X147522Y78049D01*
X147152Y78653D01*
X146692Y79192D01*
X146153Y79652D01*
X145549Y80022D01*
X144895Y80293D01*
X144206Y80458D01*
X143500Y80514D01*
X143493Y80513D01*
Y81000D01*
G37*
G36*
X137113D02*X143493D01*
Y80513D01*
X142794Y80458D01*
X142105Y80293D01*
X141451Y80022D01*
X140847Y79652D01*
X140308Y79192D01*
X139848Y78653D01*
X139478Y78049D01*
X139207Y77395D01*
X139042Y76706D01*
X138986Y76000D01*
X139042Y75294D01*
X139207Y74605D01*
X139478Y73951D01*
X139848Y73347D01*
X140308Y72808D01*
X140847Y72348D01*
X141451Y71978D01*
X142105Y71707D01*
X142794Y71542D01*
X143493Y71487D01*
Y63500D01*
X137113D01*
Y73853D01*
X137156Y73860D01*
X137268Y73897D01*
X137373Y73952D01*
X137468Y74022D01*
X137551Y74106D01*
X137619Y74202D01*
X137670Y74308D01*
X137818Y74716D01*
X137922Y75137D01*
X137984Y75567D01*
X138005Y76000D01*
X137984Y76433D01*
X137922Y76863D01*
X137818Y77284D01*
X137675Y77694D01*
X137622Y77800D01*
X137553Y77896D01*
X137470Y77981D01*
X137375Y78051D01*
X137269Y78106D01*
X137157Y78143D01*
X137113Y78151D01*
Y81000D01*
G37*
G36*
X133502D02*X137113D01*
Y78151D01*
X137040Y78163D01*
X136921Y78164D01*
X136804Y78146D01*
X136691Y78110D01*
X136585Y78057D01*
X136488Y77988D01*
X136404Y77905D01*
X136333Y77809D01*
X136279Y77704D01*
X136241Y77592D01*
X136222Y77475D01*
X136221Y77356D01*
X136239Y77239D01*
X136277Y77126D01*
X136376Y76855D01*
X136444Y76575D01*
X136486Y76289D01*
X136500Y76000D01*
X136486Y75711D01*
X136444Y75425D01*
X136376Y75145D01*
X136280Y74872D01*
X136242Y74761D01*
X136225Y74644D01*
X136225Y74526D01*
X136245Y74409D01*
X136282Y74297D01*
X136336Y74193D01*
X136406Y74098D01*
X136491Y74015D01*
X136587Y73946D01*
X136692Y73893D01*
X136805Y73857D01*
X136921Y73840D01*
X137039Y73841D01*
X137113Y73853D01*
Y63500D01*
X133502D01*
Y71495D01*
X133933Y71516D01*
X134363Y71578D01*
X134784Y71682D01*
X135194Y71825D01*
X135300Y71878D01*
X135396Y71947D01*
X135481Y72030D01*
X135551Y72125D01*
X135606Y72231D01*
X135643Y72343D01*
X135663Y72460D01*
X135664Y72579D01*
X135646Y72696D01*
X135610Y72809D01*
X135557Y72915D01*
X135488Y73012D01*
X135405Y73096D01*
X135309Y73167D01*
X135204Y73221D01*
X135092Y73259D01*
X134975Y73278D01*
X134856Y73279D01*
X134739Y73261D01*
X134626Y73223D01*
X134355Y73124D01*
X134075Y73056D01*
X133789Y73014D01*
X133502Y73000D01*
Y79000D01*
X133789Y78986D01*
X134075Y78944D01*
X134355Y78876D01*
X134628Y78780D01*
X134739Y78742D01*
X134856Y78725D01*
X134974Y78725D01*
X135091Y78745D01*
X135203Y78782D01*
X135307Y78836D01*
X135402Y78906D01*
X135485Y78991D01*
X135554Y79087D01*
X135607Y79192D01*
X135643Y79305D01*
X135660Y79421D01*
X135659Y79539D01*
X135640Y79656D01*
X135603Y79768D01*
X135548Y79873D01*
X135478Y79968D01*
X135394Y80051D01*
X135298Y80119D01*
X135192Y80170D01*
X134784Y80318D01*
X134363Y80422D01*
X133933Y80484D01*
X133502Y80505D01*
Y81000D01*
G37*
G36*
X129887D02*X133502D01*
Y80505D01*
X133500Y80505D01*
X133067Y80484D01*
X132637Y80422D01*
X132216Y80318D01*
X131806Y80175D01*
X131700Y80122D01*
X131604Y80053D01*
X131519Y79970D01*
X131449Y79875D01*
X131394Y79769D01*
X131357Y79657D01*
X131337Y79540D01*
X131336Y79421D01*
X131354Y79304D01*
X131390Y79191D01*
X131443Y79085D01*
X131512Y78988D01*
X131595Y78904D01*
X131691Y78833D01*
X131796Y78779D01*
X131908Y78741D01*
X132025Y78722D01*
X132144Y78721D01*
X132261Y78739D01*
X132374Y78777D01*
X132645Y78876D01*
X132925Y78944D01*
X133211Y78986D01*
X133500Y79000D01*
X133502Y79000D01*
Y73000D01*
X133500Y73000D01*
X133211Y73014D01*
X132925Y73056D01*
X132645Y73124D01*
X132372Y73220D01*
X132261Y73258D01*
X132144Y73275D01*
X132026Y73275D01*
X131909Y73255D01*
X131797Y73218D01*
X131693Y73164D01*
X131598Y73094D01*
X131515Y73009D01*
X131446Y72913D01*
X131393Y72808D01*
X131357Y72695D01*
X131340Y72579D01*
X131341Y72461D01*
X131360Y72344D01*
X131397Y72232D01*
X131452Y72127D01*
X131522Y72032D01*
X131606Y71949D01*
X131702Y71881D01*
X131808Y71830D01*
X132216Y71682D01*
X132637Y71578D01*
X133067Y71516D01*
X133500Y71495D01*
X133502Y71495D01*
Y63500D01*
X129887D01*
Y73849D01*
X129960Y73837D01*
X130079Y73836D01*
X130196Y73854D01*
X130309Y73890D01*
X130415Y73943D01*
X130512Y74012D01*
X130596Y74095D01*
X130667Y74191D01*
X130721Y74296D01*
X130759Y74408D01*
X130778Y74525D01*
X130779Y74644D01*
X130761Y74761D01*
X130723Y74874D01*
X130624Y75145D01*
X130556Y75425D01*
X130514Y75711D01*
X130500Y76000D01*
X130514Y76289D01*
X130556Y76575D01*
X130624Y76855D01*
X130720Y77128D01*
X130758Y77239D01*
X130775Y77356D01*
X130775Y77474D01*
X130755Y77591D01*
X130718Y77703D01*
X130664Y77807D01*
X130594Y77902D01*
X130509Y77985D01*
X130413Y78054D01*
X130308Y78107D01*
X130195Y78143D01*
X130079Y78160D01*
X129961Y78159D01*
X129887Y78147D01*
Y81000D01*
G37*
G36*
X125500D02*X129887D01*
Y78147D01*
X129844Y78140D01*
X129732Y78103D01*
X129627Y78048D01*
X129532Y77978D01*
X129449Y77894D01*
X129381Y77798D01*
X129330Y77692D01*
X129182Y77284D01*
X129078Y76863D01*
X129016Y76433D01*
X128995Y76000D01*
X129016Y75567D01*
X129078Y75137D01*
X129182Y74716D01*
X129325Y74306D01*
X129378Y74200D01*
X129447Y74104D01*
X129530Y74019D01*
X129625Y73949D01*
X129731Y73894D01*
X129843Y73857D01*
X129887Y73849D01*
Y63500D01*
X125500D01*
Y81000D01*
G37*
G36*
X175500Y63000D02*X153500D01*
Y71507D01*
X156735Y71514D01*
X156965Y71569D01*
X157183Y71659D01*
X157384Y71783D01*
X157564Y71936D01*
X157717Y72116D01*
X157841Y72317D01*
X157931Y72535D01*
X157986Y72765D01*
X158000Y73000D01*
X157986Y79235D01*
X157931Y79465D01*
X157841Y79683D01*
X157717Y79884D01*
X157564Y80064D01*
X157384Y80217D01*
X157183Y80341D01*
X156965Y80431D01*
X156735Y80486D01*
X156500Y80500D01*
X153500Y80493D01*
Y81000D01*
X175500D01*
Y63000D01*
G37*
G36*
X153500D02*X143493D01*
Y71487D01*
X143500Y71486D01*
X144206Y71542D01*
X144895Y71707D01*
X145549Y71978D01*
X146153Y72348D01*
X146692Y72808D01*
X147152Y73347D01*
X147522Y73951D01*
X147793Y74605D01*
X147958Y75294D01*
X148000Y76000D01*
X147958Y76706D01*
X147793Y77395D01*
X147522Y78049D01*
X147152Y78653D01*
X146692Y79192D01*
X146153Y79652D01*
X145549Y80022D01*
X144895Y80293D01*
X144206Y80458D01*
X143500Y80514D01*
X143493Y80513D01*
Y81000D01*
X153500D01*
Y80493D01*
X150265Y80486D01*
X150035Y80431D01*
X149817Y80341D01*
X149616Y80217D01*
X149436Y80064D01*
X149283Y79884D01*
X149159Y79683D01*
X149069Y79465D01*
X149014Y79235D01*
X149000Y79000D01*
X149014Y72765D01*
X149069Y72535D01*
X149159Y72317D01*
X149283Y72116D01*
X149436Y71936D01*
X149616Y71783D01*
X149817Y71659D01*
X150035Y71569D01*
X150265Y71514D01*
X150500Y71500D01*
X153500Y71507D01*
Y63000D01*
G37*
G36*
X143493D02*X137113D01*
Y73853D01*
X137156Y73860D01*
X137268Y73897D01*
X137373Y73952D01*
X137468Y74022D01*
X137551Y74106D01*
X137619Y74202D01*
X137670Y74308D01*
X137818Y74716D01*
X137922Y75137D01*
X137984Y75567D01*
X138005Y76000D01*
X137984Y76433D01*
X137922Y76863D01*
X137818Y77284D01*
X137675Y77694D01*
X137622Y77800D01*
X137553Y77896D01*
X137470Y77981D01*
X137375Y78051D01*
X137269Y78106D01*
X137157Y78143D01*
X137113Y78151D01*
Y81000D01*
X143493D01*
Y80513D01*
X142794Y80458D01*
X142105Y80293D01*
X141451Y80022D01*
X140847Y79652D01*
X140308Y79192D01*
X139848Y78653D01*
X139478Y78049D01*
X139207Y77395D01*
X139042Y76706D01*
X138986Y76000D01*
X139042Y75294D01*
X139207Y74605D01*
X139478Y73951D01*
X139848Y73347D01*
X140308Y72808D01*
X140847Y72348D01*
X141451Y71978D01*
X142105Y71707D01*
X142794Y71542D01*
X143493Y71487D01*
Y63000D01*
G37*
G36*
X137113D02*X133502D01*
Y71495D01*
X133933Y71516D01*
X134363Y71578D01*
X134784Y71682D01*
X135194Y71825D01*
X135300Y71878D01*
X135396Y71947D01*
X135481Y72030D01*
X135551Y72125D01*
X135606Y72231D01*
X135643Y72343D01*
X135663Y72460D01*
X135664Y72579D01*
X135646Y72696D01*
X135610Y72809D01*
X135557Y72915D01*
X135488Y73012D01*
X135405Y73096D01*
X135309Y73167D01*
X135204Y73221D01*
X135092Y73259D01*
X134975Y73278D01*
X134856Y73279D01*
X134739Y73261D01*
X134626Y73223D01*
X134355Y73124D01*
X134075Y73056D01*
X133789Y73014D01*
X133502Y73000D01*
Y79000D01*
X133789Y78986D01*
X134075Y78944D01*
X134355Y78876D01*
X134628Y78780D01*
X134739Y78742D01*
X134856Y78725D01*
X134974Y78725D01*
X135091Y78745D01*
X135203Y78782D01*
X135307Y78836D01*
X135402Y78906D01*
X135485Y78991D01*
X135554Y79087D01*
X135607Y79192D01*
X135643Y79305D01*
X135660Y79421D01*
X135659Y79539D01*
X135640Y79656D01*
X135603Y79768D01*
X135548Y79873D01*
X135478Y79968D01*
X135394Y80051D01*
X135298Y80119D01*
X135192Y80170D01*
X134784Y80318D01*
X134363Y80422D01*
X133933Y80484D01*
X133502Y80505D01*
Y81000D01*
X137113D01*
Y78151D01*
X137040Y78163D01*
X136921Y78164D01*
X136804Y78146D01*
X136691Y78110D01*
X136585Y78057D01*
X136488Y77988D01*
X136404Y77905D01*
X136333Y77809D01*
X136279Y77704D01*
X136241Y77592D01*
X136222Y77475D01*
X136221Y77356D01*
X136239Y77239D01*
X136277Y77126D01*
X136376Y76855D01*
X136444Y76575D01*
X136486Y76289D01*
X136500Y76000D01*
X136486Y75711D01*
X136444Y75425D01*
X136376Y75145D01*
X136280Y74872D01*
X136242Y74761D01*
X136225Y74644D01*
X136225Y74526D01*
X136245Y74409D01*
X136282Y74297D01*
X136336Y74193D01*
X136406Y74098D01*
X136491Y74015D01*
X136587Y73946D01*
X136692Y73893D01*
X136805Y73857D01*
X136921Y73840D01*
X137039Y73841D01*
X137113Y73853D01*
Y63000D01*
G37*
G36*
X133502D02*X129887D01*
Y73849D01*
X129960Y73837D01*
X130079Y73836D01*
X130196Y73854D01*
X130309Y73890D01*
X130415Y73943D01*
X130512Y74012D01*
X130596Y74095D01*
X130667Y74191D01*
X130721Y74296D01*
X130759Y74408D01*
X130778Y74525D01*
X130779Y74644D01*
X130761Y74761D01*
X130723Y74874D01*
X130624Y75145D01*
X130556Y75425D01*
X130514Y75711D01*
X130500Y76000D01*
X130514Y76289D01*
X130556Y76575D01*
X130624Y76855D01*
X130720Y77128D01*
X130758Y77239D01*
X130775Y77356D01*
X130775Y77474D01*
X130755Y77591D01*
X130718Y77703D01*
X130664Y77807D01*
X130594Y77902D01*
X130509Y77985D01*
X130413Y78054D01*
X130308Y78107D01*
X130195Y78143D01*
X130079Y78160D01*
X129961Y78159D01*
X129887Y78147D01*
Y81000D01*
X133502D01*
Y80505D01*
X133500Y80505D01*
X133067Y80484D01*
X132637Y80422D01*
X132216Y80318D01*
X131806Y80175D01*
X131700Y80122D01*
X131604Y80053D01*
X131519Y79970D01*
X131449Y79875D01*
X131394Y79769D01*
X131357Y79657D01*
X131337Y79540D01*
X131336Y79421D01*
X131354Y79304D01*
X131390Y79191D01*
X131443Y79085D01*
X131512Y78988D01*
X131595Y78904D01*
X131691Y78833D01*
X131796Y78779D01*
X131908Y78741D01*
X132025Y78722D01*
X132144Y78721D01*
X132261Y78739D01*
X132374Y78777D01*
X132645Y78876D01*
X132925Y78944D01*
X133211Y78986D01*
X133500Y79000D01*
X133502Y79000D01*
Y73000D01*
X133500Y73000D01*
X133211Y73014D01*
X132925Y73056D01*
X132645Y73124D01*
X132372Y73220D01*
X132261Y73258D01*
X132144Y73275D01*
X132026Y73275D01*
X131909Y73255D01*
X131797Y73218D01*
X131693Y73164D01*
X131598Y73094D01*
X131515Y73009D01*
X131446Y72913D01*
X131393Y72808D01*
X131357Y72695D01*
X131340Y72579D01*
X131341Y72461D01*
X131360Y72344D01*
X131397Y72232D01*
X131452Y72127D01*
X131522Y72032D01*
X131606Y71949D01*
X131702Y71881D01*
X131808Y71830D01*
X132216Y71682D01*
X132637Y71578D01*
X133067Y71516D01*
X133500Y71495D01*
X133502Y71495D01*
Y63000D01*
G37*
G36*
X129887D02*X121500D01*
Y81000D01*
X129887D01*
Y78147D01*
X129844Y78140D01*
X129732Y78103D01*
X129627Y78048D01*
X129532Y77978D01*
X129449Y77894D01*
X129381Y77798D01*
X129330Y77692D01*
X129182Y77284D01*
X129078Y76863D01*
X129016Y76433D01*
X128995Y76000D01*
X129016Y75567D01*
X129078Y75137D01*
X129182Y74716D01*
X129325Y74306D01*
X129378Y74200D01*
X129447Y74104D01*
X129530Y74019D01*
X129625Y73949D01*
X129731Y73894D01*
X129843Y73857D01*
X129887Y73849D01*
Y63000D01*
G37*
G54D28*X6500Y36000D02*X16000D01*
X21000Y41000D01*
X9000Y26000D02*X22000Y39000D01*
X6500Y56000D02*X58000D01*
X21000Y41000D02*X77500D01*
X84500Y63000D02*X85000D01*
X96500Y39000D02*X124000D01*
X89000Y42500D02*X92000D01*
X95500Y39000D01*
X127000Y40500D02*X125500Y39000D01*
X123500D01*
X82500Y35500D02*X58500D01*
X44000Y28500D02*X77500D01*
X42500Y25000D02*X81000D01*
X86000Y30000D01*
X55000Y39000D02*X58500Y35500D01*
X82500Y22500D02*X90500Y30500D01*
Y39000D01*
X86000Y30000D02*Y39500D01*
X89000Y42500D01*
X82500Y22500D02*X84000Y24000D01*
X50000Y22500D02*X82500D01*
X52500Y20500D02*X85500D01*
X86000Y21000D01*
X6500Y26000D02*X9000D01*
X6500Y6000D02*X27500D01*
X6500Y16000D02*X33500D01*
X22000Y39000D02*X55000D01*
X33500Y16000D02*X42500Y25000D01*
X26000Y6000D02*X43000D01*
X46000Y9000D01*
Y18500D01*
X50000Y22500D01*
X51000Y13000D02*Y19000D01*
X52500Y20500D01*
G54D29*X68000Y61000D03*
X58000Y56000D03*
Y46000D03*
Y36000D03*
X68000Y51000D03*
Y41000D03*
G54D27*G36*
X101500Y75500D02*Y69500D01*
X107500D01*
Y75500D01*
X101500D01*
G37*
G54D30*X94500Y72500D03*
X84500D03*
X104500Y62500D03*
X94500D03*
X84500D03*
G54D27*G36*
X150500Y79000D02*Y73000D01*
X156500D01*
Y79000D01*
X150500D01*
G37*
G54D30*X143500Y76000D03*
X133500D03*
X6500Y46000D03*
Y36000D03*
Y26000D03*
Y16000D03*
G54D31*X33000Y28500D03*
G54D27*G36*
X3500Y79000D02*Y73000D01*
X9500D01*
Y79000D01*
X3500D01*
G37*
G54D30*X6500Y66000D03*
Y56000D03*
G54D31*X33000Y68500D03*
G54D30*X6500Y6000D03*
G54D27*G36*
X38000Y16000D02*Y10000D01*
X44000D01*
Y16000D01*
X38000D01*
G37*
G54D30*X51000Y13000D03*
X61000D03*
G54D27*G36*
X75000Y16000D02*Y10000D01*
X81000D01*
Y16000D01*
X75000D01*
G37*
G54D30*X88000Y13000D03*
X98000D03*
G54D32*X82500Y35500D03*
X77500Y41000D03*
Y28500D03*
X44000D03*
X90500Y39000D03*
X123500Y70000D03*
Y65000D03*
X96000Y39000D03*
X127000Y40500D03*
X86000Y21000D03*
G54D33*G54D34*G54D35*G54D36*G54D35*G54D36*G54D35*M02*
