G04 start of page 10 for group -4015 idx -4015 *
G04 Title: (unknown), toppaste *
G04 Creator: pcb 20110918 *
G04 CreationDate: Sun 25 Aug 2013 09:43:08 PM GMT UTC *
G04 For: ndholmes *
G04 Format: Gerber/RS-274X *
G04 PCB-Dimensions: 180000 82000 *
G04 PCB-Coordinate-Origin: lower left *
%MOIN*%
%FSLAX25Y25*%
%LNTOPPASTE*%
%ADD62R,0.0510X0.0510*%
%ADD61C,0.0001*%
%ADD60R,0.0146X0.0146*%
%ADD59R,0.0160X0.0160*%
%ADD58R,0.0512X0.0512*%
G54D58*X123543Y59393D02*Y58607D01*
X116457Y59393D02*Y58607D01*
G54D59*X119150Y28324D02*X120850D01*
X119150Y30883D02*X120850D01*
X119150Y33441D02*X120850D01*
X119150Y36000D02*X120850D01*
X116088Y40762D02*Y39062D01*
X113529Y40762D02*Y39062D01*
X110971Y40762D02*Y39062D01*
X108412Y40762D02*Y39062D01*
X103650Y36000D02*X105350D01*
X103650Y33441D02*X105350D01*
X103650Y30883D02*X105350D01*
X103650Y28324D02*X105350D01*
G54D60*X108412Y25262D02*Y23562D01*
X110971Y25262D02*Y23562D01*
X113529Y25262D02*Y23562D01*
X116088Y25262D02*Y23562D01*
G54D61*G36*
X107100Y37312D02*Y27012D01*
X117400D01*
Y37312D01*
X107100D01*
G37*
G54D58*X134857Y35705D02*X135643D01*
X134857Y28619D02*X135643D01*
X144357Y35705D02*X145143D01*
X144357Y28619D02*X145143D01*
X153357Y35705D02*X154143D01*
X153357Y28619D02*X154143D01*
X123543Y49393D02*Y48607D01*
X116457Y49393D02*Y48607D01*
X106543Y52393D02*Y51607D01*
X99457Y52393D02*Y51607D01*
X130086Y14393D02*Y13607D01*
X123000Y14393D02*Y13607D01*
G54D62*X165500Y50462D02*X173000D01*
X165500Y13862D02*X173000D01*
M02*
