G04 start of page 9 for group -4078 idx -4078 *
G04 Title: (unknown), bottomsilk *
G04 Creator: pcb 20110918 *
G04 CreationDate: Tue 27 Aug 2013 03:50:04 AM GMT UTC *
G04 For: ndholmes *
G04 Format: Gerber/RS-274X *
G04 PCB-Dimensions: 180000 82000 *
G04 PCB-Coordinate-Origin: lower left *
%MOIN*%
%FSLAX25Y25*%
%LNBOTTOMSILK*%
%ADD55C,0.0080*%
%ADD54C,0.0100*%
G54D54*X500Y500D02*Y81500D01*
X179500D01*
Y500D01*
X1000D01*
X500Y1000D01*
G54D55*X108700Y56000D02*X110000D01*
X108000Y55300D02*X108700Y56000D01*
X108000Y52700D02*Y55300D01*
Y52700D02*X108700Y52000D01*
X110000D01*
X111900Y56000D02*X113200D01*
X111200Y55300D02*X111900Y56000D01*
X111200Y52700D02*Y55300D01*
Y52700D02*X111900Y52000D01*
X113200D01*
X116200Y56000D02*X118200D01*
X118700Y55500D01*
Y54300D02*Y55500D01*
X118200Y53800D02*X118700Y54300D01*
X116700Y53800D02*X118200D01*
X116700Y52000D02*Y56000D01*
X116200Y52000D02*X118200D01*
X118700Y52500D01*
Y53300D01*
X118200Y53800D02*X118700Y53300D01*
X119900Y52000D02*X120900Y54000D01*
X121900Y52000D01*
X120900Y54000D02*Y56000D01*
X123100Y54000D02*X125100D01*
X128300Y52000D02*X128800Y52500D01*
X126800Y52000D02*X128300D01*
X126300Y52500D02*X126800Y52000D01*
X126300Y52500D02*Y53500D01*
X126800Y54000D01*
X128300D01*
X128800Y54500D01*
Y55500D01*
X128300Y56000D02*X128800Y55500D01*
X126800Y56000D02*X128300D01*
X126300Y55500D02*X126800Y56000D01*
X130000Y53000D02*Y56000D01*
Y53000D02*X130700Y52000D01*
X131800D01*
X132500Y53000D01*
Y56000D01*
X130000Y54000D02*X132500D01*
X137300Y55500D02*X137800Y56000D01*
X137300Y52500D02*X137800Y52000D01*
X137300Y52500D02*Y55500D01*
X139700Y56000D02*X141000D01*
X139000Y55300D02*X139700Y56000D01*
X139000Y52700D02*Y55300D01*
Y52700D02*X139700Y52000D01*
X141000D01*
X142200D02*X142700Y52500D01*
Y55500D01*
X142200Y56000D02*X142700Y55500D01*
X143900Y52500D02*X144400Y52000D01*
X145900D01*
X146400Y52500D01*
Y53500D01*
X143900Y56000D02*X146400Y53500D01*
X143900Y56000D02*X146400D01*
X147600Y55500D02*X148100Y56000D01*
X147600Y52500D02*Y55500D01*
Y52500D02*X148100Y52000D01*
X149100D01*
X149600Y52500D01*
Y55500D01*
X149100Y56000D02*X149600Y55500D01*
X148100Y56000D02*X149100D01*
X147600Y55000D02*X149600Y53000D01*
X150800Y52800D02*X151600Y52000D01*
Y56000D01*
X150800D02*X152300D01*
X153500Y52500D02*X154000Y52000D01*
X155000D01*
X155500Y52500D01*
X155000Y56000D02*X155500Y55500D01*
X154000Y56000D02*X155000D01*
X153500Y55500D02*X154000Y56000D01*
Y53800D02*X155000D01*
X155500Y52500D02*Y53300D01*
Y54300D02*Y55500D01*
Y54300D02*X155000Y53800D01*
X155500Y53300D02*X155000Y53800D01*
X108700Y49000D02*X110000D01*
X108000Y48300D02*X108700Y49000D01*
X108000Y45700D02*Y48300D01*
Y45700D02*X108700Y45000D01*
X110000D01*
X111200D02*Y49000D01*
Y47000D02*X113200Y45000D01*
X111200Y47000D02*X113200Y49000D01*
X114400Y45000D02*X116400D01*
X115400D02*Y49000D01*
X117600Y47000D02*X119600D01*
X120800Y46000D02*Y49000D01*
Y46000D02*X121500Y45000D01*
X122600D01*
X123300Y46000D01*
Y49000D01*
X120800Y47000D02*X123300D01*
X126500Y45000D02*X127000Y45500D01*
X125000Y45000D02*X126500D01*
X124500Y45500D02*X125000Y45000D01*
X124500Y45500D02*Y46500D01*
X125000Y47000D01*
X126500D01*
X127000Y47500D01*
Y48500D01*
X126500Y49000D02*X127000Y48500D01*
X125000Y49000D02*X126500D01*
X124500Y48500D02*X125000Y49000D01*
X128200Y45500D02*X128700Y45000D01*
X129700D01*
X130200Y45500D01*
X129700Y49000D02*X130200Y48500D01*
X128700Y49000D02*X129700D01*
X128200Y48500D02*X128700Y49000D01*
Y46800D02*X129700D01*
X130200Y45500D02*Y46300D01*
Y47300D02*Y48500D01*
Y47300D02*X129700Y46800D01*
X130200Y46300D02*X129700Y46800D01*
X131900Y49000D02*X133400Y47000D01*
Y45500D02*Y47000D01*
X132900Y45000D02*X133400Y45500D01*
X131900Y45000D02*X132900D01*
X131400Y45500D02*X131900Y45000D01*
X131400Y45500D02*Y46500D01*
X131900Y47000D01*
X133400D01*
X134600Y45500D02*X135100Y45000D01*
X136100D01*
X136600Y45500D01*
X136100Y49000D02*X136600Y48500D01*
X135100Y49000D02*X136100D01*
X134600Y48500D02*X135100Y49000D01*
Y46800D02*X136100D01*
X136600Y45500D02*Y46300D01*
Y47300D02*Y48500D01*
Y47300D02*X136100Y46800D01*
X136600Y46300D02*X136100Y46800D01*
X137800Y45000D02*X139800D01*
X137800D02*Y47000D01*
X138300Y46500D01*
X139300D01*
X139800Y47000D01*
Y48500D01*
X139300Y49000D02*X139800Y48500D01*
X138300Y49000D02*X139300D01*
X137800Y48500D02*X138300Y49000D01*
X142800Y47000D02*X143800Y49000D01*
X144800Y47000D02*X143800Y49000D01*
X146000Y45800D02*X146800Y45000D01*
Y49000D01*
X146000D02*X147500D01*
X148700D02*X149200D01*
X150400Y45800D02*X151200Y45000D01*
Y49000D01*
X150400D02*X151900D01*
X102500Y20500D02*X103500D01*
X103000D02*Y24500D01*
X102500D02*X103500D01*
X104700Y23000D02*Y24000D01*
Y23000D02*X105200Y22500D01*
X106200D01*
X106700Y23000D01*
Y24000D01*
X106200Y24500D02*X106700Y24000D01*
X105200Y24500D02*X106200D01*
X104700Y24000D02*X105200Y24500D01*
X107900Y22500D02*Y24000D01*
X108400Y24500D01*
X108900D01*
X109400Y24000D01*
Y22500D02*Y24000D01*
X109900Y24500D01*
X110400D01*
X110900Y24000D01*
Y22500D02*Y24000D01*
X113600Y22500D02*X114100Y23000D01*
X112600Y22500D02*X113600D01*
X112100Y23000D02*X112600Y22500D01*
X112100Y23000D02*Y24000D01*
X112600Y24500D01*
X114100Y22500D02*Y24000D01*
X114600Y24500D01*
X112600D02*X113600D01*
X114100Y24000D01*
X119600Y20500D02*X120100Y21000D01*
X118100Y20500D02*X119600D01*
X117600Y21000D02*X118100Y20500D01*
X117600Y21000D02*Y22000D01*
X118100Y22500D01*
X119600D01*
X120100Y23000D01*
Y24000D01*
X119600Y24500D02*X120100Y24000D01*
X118100Y24500D02*X119600D01*
X117600Y24000D02*X118100Y24500D01*
X121800Y22500D02*X123300D01*
X121300Y23000D02*X121800Y22500D01*
X121300Y23000D02*Y24000D01*
X121800Y24500D01*
X123300D01*
X126000Y22500D02*X126500Y23000D01*
X125000Y22500D02*X126000D01*
X124500Y23000D02*X125000Y22500D01*
X124500Y23000D02*Y24000D01*
X125000Y24500D01*
X126500Y22500D02*Y24000D01*
X127000Y24500D01*
X125000D02*X126000D01*
X126500Y24000D01*
X128200Y20500D02*Y24000D01*
X128700Y24500D01*
X130200D02*X131700D01*
X129700Y24000D02*X130200Y24500D01*
X129700Y23000D02*Y24000D01*
Y23000D02*X130200Y22500D01*
X131200D01*
X131700Y23000D01*
X129700Y23500D02*X131700D01*
Y23000D02*Y23500D01*
X134900Y20500D02*Y24500D01*
X134400D02*X134900Y24000D01*
X133400Y24500D02*X134400D01*
X132900Y24000D02*X133400Y24500D01*
X132900Y23000D02*Y24000D01*
Y23000D02*X133400Y22500D01*
X134400D01*
X134900Y23000D01*
X137900Y22300D02*X139400D01*
X137900Y24500D02*X139900D01*
X137900Y20500D02*Y24500D01*
Y20500D02*X139900D01*
X141600Y23000D02*Y24500D01*
Y23000D02*X142100Y22500D01*
X142600D01*
X143100Y23000D01*
Y24500D01*
X141100Y22500D02*X141600Y23000D01*
X145800Y22500D02*X146300Y23000D01*
X144800Y22500D02*X145800D01*
X144300Y23000D02*X144800Y22500D01*
X144300Y23000D02*Y24000D01*
X144800Y24500D01*
X145800D01*
X146300Y24000D01*
X144300Y25500D02*X144800Y26000D01*
X145800D01*
X146300Y25500D01*
Y22500D02*Y25500D01*
X147500Y21500D02*Y21600D01*
Y23000D02*Y24500D01*
X149000Y23000D02*Y24500D01*
Y23000D02*X149500Y22500D01*
X150000D01*
X150500Y23000D01*
Y24500D01*
X148500Y22500D02*X149000Y23000D01*
X152200Y24500D02*X153700D01*
X151700Y24000D02*X152200Y24500D01*
X151700Y23000D02*Y24000D01*
Y23000D02*X152200Y22500D01*
X153200D01*
X153700Y23000D01*
X151700Y23500D02*X153700D01*
Y23000D02*Y23500D01*
X155400Y24500D02*X156900D01*
X154900Y24000D02*X155400Y24500D01*
X154900Y23000D02*Y24000D01*
Y23000D02*X155400Y22500D01*
X156400D01*
X156900Y23000D01*
X154900Y23500D02*X156900D01*
Y23000D02*Y23500D01*
X158600Y23000D02*Y24500D01*
Y23000D02*X159100Y22500D01*
X160100D01*
X158100D02*X158600Y23000D01*
X161300Y21500D02*Y21600D01*
Y23000D02*Y24500D01*
X162800Y23000D02*Y24500D01*
Y23000D02*X163300Y22500D01*
X163800D01*
X164300Y23000D01*
Y24500D01*
X162300Y22500D02*X162800Y23000D01*
X167000Y22500D02*X167500Y23000D01*
X166000Y22500D02*X167000D01*
X165500Y23000D02*X166000Y22500D01*
X165500Y23000D02*Y24000D01*
X166000Y24500D01*
X167000D01*
X167500Y24000D01*
X165500Y25500D02*X166000Y26000D01*
X167000D01*
X167500Y25500D01*
Y22500D02*Y25500D01*
X102500Y28000D02*Y32000D01*
Y30500D02*X103000Y30000D01*
X104000D01*
X104500Y30500D01*
Y32000D01*
X106200Y28000D02*Y31500D01*
X106700Y32000D01*
X105700Y29500D02*X106700D01*
X108200Y28000D02*Y31500D01*
X108700Y32000D01*
X107700Y29500D02*X108700D01*
X110200Y30500D02*Y33500D01*
X109700Y30000D02*X110200Y30500D01*
X110700Y30000D01*
X111700D01*
X112200Y30500D01*
Y31500D01*
X111700Y32000D02*X112200Y31500D01*
X110700Y32000D02*X111700D01*
X110200Y31500D02*X110700Y32000D01*
X113400Y29500D02*X113900D01*
X113400Y30500D02*X113900D01*
X115100Y31500D02*X118100Y28500D01*
X119300Y31500D02*X122300Y28500D01*
X123500Y30000D02*Y31500D01*
X124000Y32000D01*
X124500D01*
X125000Y31500D01*
Y30000D02*Y31500D01*
X125500Y32000D01*
X126000D01*
X126500Y31500D01*
Y30000D02*Y31500D01*
X127700Y30000D02*Y31500D01*
X128200Y32000D01*
X128700D01*
X129200Y31500D01*
Y30000D02*Y31500D01*
X129700Y32000D01*
X130200D01*
X130700Y31500D01*
Y30000D02*Y31500D01*
X131900Y30000D02*Y31500D01*
X132400Y32000D01*
X132900D01*
X133400Y31500D01*
Y30000D02*Y31500D01*
X133900Y32000D01*
X134400D01*
X134900Y31500D01*
Y30000D02*Y31500D01*
X136100Y32000D02*X136600D01*
X137800Y29000D02*Y29100D01*
Y30500D02*Y32000D01*
X140300Y30000D02*X140800Y30500D01*
X139300Y30000D02*X140300D01*
X138800Y30500D02*X139300Y30000D01*
X138800Y30500D02*Y31500D01*
X139300Y32000D01*
X140800Y30000D02*Y31500D01*
X141300Y32000D01*
X139300D02*X140300D01*
X140800Y31500D01*
X143000Y32000D02*X144500D01*
X145000Y31500D01*
X144500Y31000D02*X145000Y31500D01*
X143000Y31000D02*X144500D01*
X142500Y30500D02*X143000Y31000D01*
X142500Y30500D02*X143000Y30000D01*
X144500D01*
X145000Y30500D01*
X142500Y31500D02*X143000Y32000D01*
X146700Y30000D02*X148200D01*
X146200Y30500D02*X146700Y30000D01*
X146200Y30500D02*Y31500D01*
X146700Y32000D01*
X148200D01*
X150900Y30000D02*X151400Y30500D01*
X149900Y30000D02*X150900D01*
X149400Y30500D02*X149900Y30000D01*
X149400Y30500D02*Y31500D01*
X149900Y32000D01*
X151400Y30000D02*Y31500D01*
X151900Y32000D01*
X149900D02*X150900D01*
X151400Y31500D01*
X153100Y28000D02*Y31500D01*
X153600Y32000D01*
X155100D02*X156600D01*
X154600Y31500D02*X155100Y32000D01*
X154600Y30500D02*Y31500D01*
Y30500D02*X155100Y30000D01*
X156100D01*
X156600Y30500D01*
X154600Y31000D02*X156600D01*
Y30500D02*Y31000D01*
X159800Y28000D02*Y32000D01*
X159300D02*X159800Y31500D01*
X158300Y32000D02*X159300D01*
X157800Y31500D02*X158300Y32000D01*
X157800Y30500D02*Y31500D01*
Y30500D02*X158300Y30000D01*
X159300D01*
X159800Y30500D01*
X161000Y32000D02*X161500D01*
X163200Y30000D02*X164700D01*
X162700Y30500D02*X163200Y30000D01*
X162700Y30500D02*Y31500D01*
X163200Y32000D01*
X164700D01*
X165900Y30500D02*Y31500D01*
Y30500D02*X166400Y30000D01*
X167400D01*
X167900Y30500D01*
Y31500D01*
X167400Y32000D02*X167900Y31500D01*
X166400Y32000D02*X167400D01*
X165900Y31500D02*X166400Y32000D01*
X169600Y30500D02*Y32000D01*
Y30500D02*X170100Y30000D01*
X170600D01*
X171100Y30500D01*
Y32000D01*
Y30500D02*X171600Y30000D01*
X172100D01*
X172600Y30500D01*
Y32000D01*
X169100Y30000D02*X169600Y30500D01*
M02*
