G04 start of page 2 for group 0 idx 0 *
G04 Title: (unknown), component *
G04 Creator: pcb 20110918 *
G04 CreationDate: Tue 27 Aug 2013 03:50:04 AM GMT UTC *
G04 For: ndholmes *
G04 Format: Gerber/RS-274X *
G04 PCB-Dimensions: 180000 82000 *
G04 PCB-Coordinate-Origin: lower left *
%MOIN*%
%FSLAX25Y25*%
%LNTOP*%
%ADD25C,0.1280*%
%ADD24C,0.0380*%
%ADD23C,0.0300*%
%ADD22C,0.0200*%
%ADD21C,0.0360*%
%ADD20R,0.0160X0.0160*%
%ADD19R,0.0510X0.0510*%
%ADD18R,0.0512X0.0512*%
%ADD17C,0.1440*%
%ADD16C,0.0600*%
%ADD15C,0.0001*%
%ADD14C,0.0700*%
%ADD13C,0.0100*%
%ADD12C,0.0250*%
%ADD11C,0.0400*%
G54D11*X6500Y76000D02*X7000D01*
G54D12*X135250Y28662D02*X153750D01*
Y35662D02*X135250D01*
X153750Y28662D02*Y16662D01*
Y35662D02*Y47162D01*
X157250Y50662D01*
X171250D01*
X153750Y16662D02*X156750Y13662D01*
X168250D01*
G54D13*X120000Y33441D02*X126029D01*
X128250Y35662D01*
X134750D01*
X120000Y30883D02*X126029D01*
X128250Y28662D01*
X135750D01*
X120000Y28324D02*Y22500D01*
X123000Y19500D01*
Y15500D01*
X126000Y12500D01*
X131500D01*
G54D12*X120000Y7500D02*X125000D01*
X127000Y5500D01*
X130500D01*
G54D13*X115000Y18500D02*X116000Y19500D01*
X93500Y18000D02*X114500D01*
X116000Y19500D01*
Y24324D01*
X116088Y24412D01*
X113529D02*Y21529D01*
X112500Y20500D01*
X120000Y36000D02*X116088D01*
X112250Y32162D01*
X120000Y36000D02*Y39912D01*
G54D12*Y40000D01*
G54D11*X123500Y59000D02*Y49043D01*
X123543Y49000D01*
G54D12*X120000Y40000D02*X123500Y43500D01*
Y48500D01*
G54D11*X116500Y58543D02*X116457Y58500D01*
G54D13*X129000Y44000D02*Y66500D01*
Y42500D02*Y44500D01*
X127000Y40500D02*X129000Y42500D01*
X116088Y39912D02*Y49043D01*
X116207Y49162D01*
G54D11*X116457Y59000D02*Y49000D01*
G54D13*X113529Y39912D02*Y42971D01*
X112000Y44500D01*
X111000Y42500D02*Y39941D01*
X110971Y39912D01*
X109000Y44500D02*X111000Y42500D01*
X101500Y46500D02*X110000D01*
X112500Y44000D01*
X99000Y44500D02*X109000D01*
X108412Y39912D02*X100588D01*
X99250Y41250D01*
G54D11*X104500Y59000D02*X106500Y57000D01*
Y52043D01*
X106543Y52000D01*
G54D13*X97000Y44500D02*X100500D01*
G54D11*X104500Y63000D02*Y59000D01*
Y73000D02*X110500D01*
X116500Y67000D01*
Y58543D01*
X104500Y73000D02*Y75000D01*
X123500Y58500D02*Y70000D01*
G54D12*X132500Y75000D02*X133500Y76000D01*
G54D13*X106000Y80500D02*X149000D01*
G54D11*X129500Y76000D02*X134000D01*
G54D13*X149000Y80500D02*X153500Y76000D01*
X129000Y66500D02*X132500Y70000D01*
G54D11*X123500D02*X129500Y76000D01*
G54D13*X132500Y70000D02*X137500D01*
X143500Y76000D01*
X74000Y53500D02*Y26500D01*
X76000Y24500D01*
X77500Y34000D02*Y41000D01*
X80000Y50000D02*Y43000D01*
X84000Y39000D01*
G54D11*X12500Y79000D02*X101000D01*
X7000Y76000D02*X10000Y79000D01*
X15500D01*
X104500Y75000D02*X100500Y79000D01*
X77500D01*
G54D13*X102500Y77000D02*X106000Y80500D01*
X99457Y52000D02*Y48543D01*
X99500Y66500D02*Y51586D01*
X99457Y51543D01*
X94500Y73000D02*Y71500D01*
X89500Y67500D02*Y79000D01*
X94500Y71500D02*X99500Y66500D01*
X84500Y63000D02*X85000D01*
X89500Y67500D01*
G54D11*X49500Y79000D02*Y48500D01*
G54D13*X58000Y56000D02*X71500D01*
X74000Y53500D01*
X94500Y62500D02*Y53500D01*
X96500Y39000D02*X97000D01*
X100000Y36000D01*
X104500D01*
X108324Y24500D02*X108412Y24412D01*
X76000Y24500D02*X108324D01*
X104500Y30883D02*X80617D01*
X77500Y34000D01*
X104500Y33441D02*X84559D01*
X104500Y28324D02*X77676D01*
X88500Y13000D02*X93500Y18000D01*
X77676Y28324D02*X77500Y28500D01*
X112500Y20500D02*X86000D01*
X41000Y13000D02*X43000D01*
X48500Y18500D01*
X63000D01*
X36000Y4000D02*X106500D01*
X110000Y7500D01*
X84559Y33441D02*X82500Y35500D01*
X63000Y18500D02*X69000Y12500D01*
X77500D01*
X88000Y13000D02*X88500D01*
X51000Y27500D02*Y18500D01*
Y27000D02*Y43000D01*
X44000Y33500D02*Y26500D01*
X32500Y15000D01*
Y7500D01*
X36000Y4000D01*
X99457Y48543D02*X101500Y46500D01*
X31000D02*X7000D01*
X6500Y46000D01*
G54D11*X49500Y48500D02*X52000Y46000D01*
X58000D01*
G54D13*X44000Y33500D02*X31000Y46500D01*
X51000Y42500D02*Y46500D01*
X90500Y39000D02*Y39500D01*
X93500Y42500D01*
X84000Y39000D02*X90500D01*
X93500Y42500D02*X98000D01*
X99750Y40750D01*
X94500Y53500D02*X95500Y52500D01*
Y46000D01*
X97000Y44500D01*
G54D14*X68000Y61000D03*
X58000Y56000D03*
Y46000D03*
Y36000D03*
X68000Y51000D03*
Y41000D03*
G54D15*G36*
X77000Y53000D02*Y47000D01*
X83000D01*
Y53000D01*
X77000D01*
G37*
G54D16*X90000Y50000D03*
G54D15*G36*
X101500Y75500D02*Y69500D01*
X107500D01*
Y75500D01*
X101500D01*
G37*
G54D16*X94500Y72500D03*
X84500D03*
X104500Y62500D03*
X94500D03*
X84500D03*
G54D15*G36*
X150500Y79000D02*Y73000D01*
X156500D01*
Y79000D01*
X150500D01*
G37*
G54D16*X143500Y76000D03*
X133500D03*
X6500Y46000D03*
Y36000D03*
Y26000D03*
Y16000D03*
G54D17*X33000Y28500D03*
G54D15*G36*
X3500Y79000D02*Y73000D01*
X9500D01*
Y79000D01*
X3500D01*
G37*
G54D16*X6500Y66000D03*
Y56000D03*
G54D17*X33000Y68500D03*
G54D16*X6500Y6000D03*
G54D15*G36*
X38000Y16000D02*Y10000D01*
X44000D01*
Y16000D01*
X38000D01*
G37*
G54D16*X51000Y13000D03*
X61000D03*
G54D15*G36*
X75000Y16000D02*Y10000D01*
X81000D01*
Y16000D01*
X75000D01*
G37*
G54D16*X88000Y13000D03*
X98000D03*
G54D15*G36*
X107000Y10500D02*Y4500D01*
X113000D01*
Y10500D01*
X107000D01*
G37*
G54D16*X120000Y7500D03*
G54D18*X134857Y35705D02*X135643D01*
X134857Y28619D02*X135643D01*
X144357Y35705D02*X145143D01*
X144357Y28619D02*X145143D01*
X153357Y35705D02*X154143D01*
X153357Y28619D02*X154143D01*
G54D19*X165500Y50462D02*X173000D01*
X165500Y13862D02*X173000D01*
G54D18*X130607Y5457D02*X131393D01*
X130607Y12543D02*X131393D01*
G54D20*X119150Y28324D02*X120850D01*
X119150Y30883D02*X120850D01*
X119150Y33441D02*X120850D01*
X119150Y36000D02*X120850D01*
X116088Y40762D02*Y39062D01*
Y25262D02*Y23562D01*
G54D18*X123543Y59393D02*Y58607D01*
X116457Y59393D02*Y58607D01*
X123543Y49393D02*Y48607D01*
X116457Y49393D02*Y48607D01*
G54D20*X113529Y40762D02*Y39062D01*
X110971Y40762D02*Y39062D01*
G54D18*X106543Y52393D02*Y51607D01*
X99457Y52393D02*Y51607D01*
G54D20*X108412Y40762D02*Y39062D01*
Y25262D02*Y23562D01*
X110971Y25262D02*Y23562D01*
X113529Y25262D02*Y23562D01*
G54D15*G36*
X107100Y37312D02*Y27012D01*
X117400D01*
Y37312D01*
X107100D01*
G37*
G36*
X108750Y35662D02*Y28662D01*
X115750D01*
Y35662D01*
X108750D01*
G37*
G54D20*X103650Y36000D02*X105350D01*
X103650Y33441D02*X105350D01*
X103650Y30883D02*X105350D01*
X103650Y28324D02*X105350D01*
G54D21*X82500Y35500D03*
X77500Y41000D03*
Y28500D03*
X44000D03*
X90500Y39000D03*
X123500Y70000D03*
Y65000D03*
X96000Y39000D03*
X127000Y40500D03*
X86000Y21000D03*
G54D22*G54D23*G54D24*G54D25*G54D24*G54D25*G54D24*M02*
