G04 start of page 12 for group -3984 idx -3984 *
G04 Title: (unknown), fab *
G04 Creator: pcb 20110918 *
G04 CreationDate: Tue 27 Aug 2013 03:50:04 AM GMT UTC *
G04 For: ndholmes *
G04 Format: Gerber/RS-274X *
G04 PCB-Dimensions: 180000 82000 *
G04 PCB-Coordinate-Origin: lower left *
%MOIN*%
%FSLAX25Y25*%
%LNFAB*%
%ADD63C,0.0100*%
%ADD62C,0.0075*%
%ADD61C,0.0060*%
%ADD60R,0.0080X0.0080*%
G54D60*X32200Y68500D02*G75*G03X33800Y68500I800J0D01*G01*
G75*G03X32200Y68500I-800J0D01*G01*
Y28500D02*G75*G03X33800Y28500I800J0D01*G01*
G75*G03X32200Y28500I-800J0D01*G01*
X14200Y93250D02*G75*G03X15800Y93250I800J0D01*G01*
G75*G03X14200Y93250I-800J0D01*G01*
G54D61*X135000Y95500D02*X136500Y92500D01*
X138000Y95500D01*
X136500Y92500D02*Y89500D01*
X139800Y92800D02*X142050D01*
X139800Y89500D02*X142800D01*
X139800Y95500D02*Y89500D01*
Y95500D02*X142800D01*
X147600D02*X148350Y94750D01*
X145350Y95500D02*X147600D01*
X144600Y94750D02*X145350Y95500D01*
X144600Y94750D02*Y93250D01*
X145350Y92500D01*
X147600D01*
X148350Y91750D01*
Y90250D01*
X147600Y89500D02*X148350Y90250D01*
X145350Y89500D02*X147600D01*
X144600Y90250D02*X145350Y89500D01*
X98000Y94750D02*X98750Y95500D01*
X101000D01*
X101750Y94750D01*
Y93250D01*
X98000Y89500D02*X101750Y93250D01*
X98000Y89500D02*X101750D01*
X45000Y90250D02*X45750Y89500D01*
X45000Y94750D02*Y90250D01*
Y94750D02*X45750Y95500D01*
X47250D01*
X48000Y94750D01*
Y90250D01*
X47250Y89500D02*X48000Y90250D01*
X45750Y89500D02*X47250D01*
X45000Y91000D02*X48000Y94000D01*
X49800Y89500D02*X50550D01*
X52350Y94300D02*X53550Y95500D01*
Y89500D01*
X52350D02*X54600D01*
X56400Y94750D02*X57150Y95500D01*
X59400D01*
X60150Y94750D01*
Y93250D01*
X56400Y89500D02*X60150Y93250D01*
X56400Y89500D02*X60150D01*
X61950Y90250D02*X62700Y89500D01*
X61950Y91450D02*Y90250D01*
Y91450D02*X63000Y92500D01*
X63900D01*
X64950Y91450D01*
Y90250D01*
X64200Y89500D02*X64950Y90250D01*
X62700Y89500D02*X64200D01*
X61950Y93550D02*X63000Y92500D01*
X61950Y94750D02*Y93550D01*
Y94750D02*X62700Y95500D01*
X64200D01*
X64950Y94750D01*
Y93550D01*
X63900Y92500D02*X64950Y93550D01*
X5300Y77200D02*X7700Y74800D01*
X5300D02*X7700Y77200D01*
X5300Y67200D02*X7700Y64800D01*
X5300D02*X7700Y67200D01*
X5300Y57200D02*X7700Y54800D01*
X5300D02*X7700Y57200D01*
X5300Y47200D02*X7700Y44800D01*
X5300D02*X7700Y47200D01*
X5300Y37200D02*X7700Y34800D01*
X5300D02*X7700Y37200D01*
X5300Y27200D02*X7700Y24800D01*
X5300D02*X7700Y27200D01*
X5300Y17200D02*X7700Y14800D01*
X5300D02*X7700Y17200D01*
X5300Y7200D02*X7700Y4800D01*
X5300D02*X7700Y7200D01*
X103300Y73700D02*X105700Y71300D01*
X103300D02*X105700Y73700D01*
X93300D02*X95700Y71300D01*
X93300D02*X95700Y73700D01*
X83300D02*X85700Y71300D01*
X83300D02*X85700Y73700D01*
X103300Y63700D02*X105700Y61300D01*
X103300D02*X105700Y63700D01*
X93300D02*X95700Y61300D01*
X93300D02*X95700Y63700D01*
X83300D02*X85700Y61300D01*
X83300D02*X85700Y63700D01*
X152300Y77200D02*X154700Y74800D01*
X152300D02*X154700Y77200D01*
X142300D02*X144700Y74800D01*
X142300D02*X144700Y77200D01*
X132300D02*X134700Y74800D01*
X132300D02*X134700Y77200D01*
X39800Y14200D02*X42200Y11800D01*
X39800D02*X42200Y14200D01*
X49800D02*X52200Y11800D01*
X49800D02*X52200Y14200D01*
X59800D02*X62200Y11800D01*
X59800D02*X62200Y14200D01*
X76800D02*X79200Y11800D01*
X76800D02*X79200Y14200D01*
X86800D02*X89200Y11800D01*
X86800D02*X89200Y14200D01*
X96800D02*X99200Y11800D01*
X96800D02*X99200Y14200D01*
X78800Y51200D02*X81200Y48800D01*
X78800D02*X81200Y51200D01*
X88800D02*X91200Y48800D01*
X88800D02*X91200Y51200D01*
X108800Y8700D02*X111200Y6300D01*
X108800D02*X111200Y8700D01*
X118800D02*X121200Y6300D01*
X118800D02*X121200Y8700D01*
X13800Y109450D02*X16200Y107050D01*
X13800D02*X16200Y109450D01*
X135000Y110500D02*X136500Y107500D01*
X138000Y110500D01*
X136500Y107500D02*Y104500D01*
X139800Y107800D02*X142050D01*
X139800Y104500D02*X142800D01*
X139800Y110500D02*Y104500D01*
Y110500D02*X142800D01*
X147600D02*X148350Y109750D01*
X145350Y110500D02*X147600D01*
X144600Y109750D02*X145350Y110500D01*
X144600Y109750D02*Y108250D01*
X145350Y107500D01*
X147600D01*
X148350Y106750D01*
Y105250D01*
X147600Y104500D02*X148350Y105250D01*
X145350Y104500D02*X147600D01*
X144600Y105250D02*X145350Y104500D01*
X98000Y109750D02*X98750Y110500D01*
X101000D01*
X101750Y109750D01*
Y108250D01*
X98000Y104500D02*X101750Y108250D01*
X98000Y104500D02*X101750D01*
X104300D02*X107300Y110500D01*
X103550D02*X107300D01*
X45000Y105250D02*X45750Y104500D01*
X45000Y109750D02*Y105250D01*
Y109750D02*X45750Y110500D01*
X47250D01*
X48000Y109750D01*
Y105250D01*
X47250Y104500D02*X48000Y105250D01*
X45750Y104500D02*X47250D01*
X45000Y106000D02*X48000Y109000D01*
X49800Y104500D02*X50550D01*
X52350Y105250D02*X53100Y104500D01*
X52350Y109750D02*Y105250D01*
Y109750D02*X53100Y110500D01*
X54600D01*
X55350Y109750D01*
Y105250D01*
X54600Y104500D02*X55350Y105250D01*
X53100Y104500D02*X54600D01*
X52350Y106000D02*X55350Y109000D01*
X57150Y109750D02*X57900Y110500D01*
X59400D01*
X60150Y109750D01*
X59400Y104500D02*X60150Y105250D01*
X57900Y104500D02*X59400D01*
X57150Y105250D02*X57900Y104500D01*
Y107800D02*X59400D01*
X60150Y109750D02*Y108550D01*
Y107050D02*Y105250D01*
Y107050D02*X59400Y107800D01*
X60150Y108550D02*X59400Y107800D01*
X61950Y105250D02*X62700Y104500D01*
X61950Y106450D02*Y105250D01*
Y106450D02*X63000Y107500D01*
X63900D01*
X64950Y106450D01*
Y105250D01*
X64200Y104500D02*X64950Y105250D01*
X62700Y104500D02*X64200D01*
X61950Y108550D02*X63000Y107500D01*
X61950Y109750D02*Y108550D01*
Y109750D02*X62700Y110500D01*
X64200D01*
X64950Y109750D01*
Y108550D01*
X63900Y107500D02*X64950Y108550D01*
X68000Y62600D02*Y59400D01*
X66400Y61000D02*X69600D01*
X58000Y57600D02*Y54400D01*
X56400Y56000D02*X59600D01*
X68000Y52600D02*Y49400D01*
X66400Y51000D02*X69600D01*
X58000Y47600D02*Y44400D01*
X56400Y46000D02*X59600D01*
X68000Y42600D02*Y39400D01*
X66400Y41000D02*X69600D01*
X58000Y37600D02*Y34400D01*
X56400Y36000D02*X59600D01*
X15000Y124850D02*Y121650D01*
X13400Y123250D02*X16600D01*
X135000Y125500D02*X136500Y122500D01*
X138000Y125500D01*
X136500Y122500D02*Y119500D01*
X139800Y122800D02*X142050D01*
X139800Y119500D02*X142800D01*
X139800Y125500D02*Y119500D01*
Y125500D02*X142800D01*
X147600D02*X148350Y124750D01*
X145350Y125500D02*X147600D01*
X144600Y124750D02*X145350Y125500D01*
X144600Y124750D02*Y123250D01*
X145350Y122500D01*
X147600D01*
X148350Y121750D01*
Y120250D01*
X147600Y119500D02*X148350Y120250D01*
X145350Y119500D02*X147600D01*
X144600Y120250D02*X145350Y119500D01*
X100250Y125500D02*X101000Y124750D01*
X98750Y125500D02*X100250D01*
X98000Y124750D02*X98750Y125500D01*
X98000Y124750D02*Y120250D01*
X98750Y119500D01*
X100250Y122800D02*X101000Y122050D01*
X98000Y122800D02*X100250D01*
X98750Y119500D02*X100250D01*
X101000Y120250D01*
Y122050D02*Y120250D01*
X45000D02*X45750Y119500D01*
X45000Y124750D02*Y120250D01*
Y124750D02*X45750Y125500D01*
X47250D01*
X48000Y124750D01*
Y120250D01*
X47250Y119500D02*X48000Y120250D01*
X45750Y119500D02*X47250D01*
X45000Y121000D02*X48000Y124000D01*
X49800Y119500D02*X50550D01*
X52350Y120250D02*X53100Y119500D01*
X52350Y124750D02*Y120250D01*
Y124750D02*X53100Y125500D01*
X54600D01*
X55350Y124750D01*
Y120250D01*
X54600Y119500D02*X55350Y120250D01*
X53100Y119500D02*X54600D01*
X52350Y121000D02*X55350Y124000D01*
X57150Y124750D02*X57900Y125500D01*
X59400D01*
X60150Y124750D01*
X59400Y119500D02*X60150Y120250D01*
X57900Y119500D02*X59400D01*
X57150Y120250D02*X57900Y119500D01*
Y122800D02*X59400D01*
X60150Y124750D02*Y123550D01*
Y122050D02*Y120250D01*
Y122050D02*X59400Y122800D01*
X60150Y123550D02*X59400Y122800D01*
X61950Y120250D02*X62700Y119500D01*
X61950Y124750D02*Y120250D01*
Y124750D02*X62700Y125500D01*
X64200D01*
X64950Y124750D01*
Y120250D01*
X64200Y119500D02*X64950Y120250D01*
X62700Y119500D02*X64200D01*
X61950Y121000D02*X64950Y124000D01*
X123500Y70000D02*Y68400D01*
Y70000D02*X124887Y70800D01*
X123500Y70000D02*X122113Y70800D01*
X123500Y65000D02*Y63400D01*
Y65000D02*X124887Y65800D01*
X123500Y65000D02*X122113Y65800D01*
X82500Y35500D02*Y33900D01*
Y35500D02*X83887Y36300D01*
X82500Y35500D02*X81113Y36300D01*
X77500Y41000D02*Y39400D01*
Y41000D02*X78887Y41800D01*
X77500Y41000D02*X76113Y41800D01*
X77500Y28500D02*Y26900D01*
Y28500D02*X78887Y29300D01*
X77500Y28500D02*X76113Y29300D01*
X44000Y28500D02*Y26900D01*
Y28500D02*X45387Y29300D01*
X44000Y28500D02*X42613Y29300D01*
X90500Y39000D02*Y37400D01*
Y39000D02*X91887Y39800D01*
X90500Y39000D02*X89113Y39800D01*
X96000Y39000D02*Y37400D01*
Y39000D02*X97387Y39800D01*
X96000Y39000D02*X94613Y39800D01*
X127000Y40500D02*Y38900D01*
Y40500D02*X128387Y41300D01*
X127000Y40500D02*X125613Y41300D01*
X86000Y21000D02*Y19400D01*
Y21000D02*X87387Y21800D01*
X86000Y21000D02*X84613Y21800D01*
X15000Y138250D02*Y136650D01*
Y138250D02*X16387Y139050D01*
X15000Y138250D02*X13613Y139050D01*
X135000Y140500D02*X136500Y137500D01*
X138000Y140500D01*
X136500Y137500D02*Y134500D01*
X139800Y137800D02*X142050D01*
X139800Y134500D02*X142800D01*
X139800Y140500D02*Y134500D01*
Y140500D02*X142800D01*
X147600D02*X148350Y139750D01*
X145350Y140500D02*X147600D01*
X144600Y139750D02*X145350Y140500D01*
X144600Y139750D02*Y138250D01*
X145350Y137500D01*
X147600D01*
X148350Y136750D01*
Y135250D01*
X147600Y134500D02*X148350Y135250D01*
X145350Y134500D02*X147600D01*
X144600Y135250D02*X145350Y134500D01*
X98000Y139300D02*X99200Y140500D01*
Y134500D01*
X98000D02*X100250D01*
X102050Y135250D02*X102800Y134500D01*
X102050Y139750D02*Y135250D01*
Y139750D02*X102800Y140500D01*
X104300D01*
X105050Y139750D01*
Y135250D01*
X104300Y134500D02*X105050Y135250D01*
X102800Y134500D02*X104300D01*
X102050Y136000D02*X105050Y139000D01*
X45000Y135250D02*X45750Y134500D01*
X45000Y139750D02*Y135250D01*
Y139750D02*X45750Y140500D01*
X47250D01*
X48000Y139750D01*
Y135250D01*
X47250Y134500D02*X48000Y135250D01*
X45750Y134500D02*X47250D01*
X45000Y136000D02*X48000Y139000D01*
X49800Y134500D02*X50550D01*
X52350Y135250D02*X53100Y134500D01*
X52350Y139750D02*Y135250D01*
Y139750D02*X53100Y140500D01*
X54600D01*
X55350Y139750D01*
Y135250D01*
X54600Y134500D02*X55350Y135250D01*
X53100Y134500D02*X54600D01*
X52350Y136000D02*X55350Y139000D01*
X57150Y139750D02*X57900Y140500D01*
X60150D01*
X60900Y139750D01*
Y138250D01*
X57150Y134500D02*X60900Y138250D01*
X57150Y134500D02*X60900D01*
X62700Y135250D02*X63450Y134500D01*
X62700Y139750D02*Y135250D01*
Y139750D02*X63450Y140500D01*
X64950D01*
X65700Y139750D01*
Y135250D01*
X64950Y134500D02*X65700Y135250D01*
X63450Y134500D02*X64950D01*
X62700Y136000D02*X65700Y139000D01*
X3000Y155500D02*X3750Y154750D01*
X750Y155500D02*X3000D01*
X0Y154750D02*X750Y155500D01*
X0Y154750D02*Y153250D01*
X750Y152500D01*
X3000D01*
X3750Y151750D01*
Y150250D01*
X3000Y149500D02*X3750Y150250D01*
X750Y149500D02*X3000D01*
X0Y150250D02*X750Y149500D01*
X5550Y152500D02*Y150250D01*
X6300Y149500D01*
X8550Y152500D02*Y148000D01*
X7800Y147250D02*X8550Y148000D01*
X6300Y147250D02*X7800D01*
X5550Y148000D02*X6300Y147250D01*
Y149500D02*X7800D01*
X8550Y150250D01*
X11100Y151750D02*Y149500D01*
Y151750D02*X11850Y152500D01*
X12600D01*
X13350Y151750D01*
Y149500D01*
Y151750D02*X14100Y152500D01*
X14850D01*
X15600Y151750D01*
Y149500D01*
X10350Y152500D02*X11100Y151750D01*
X17400Y155500D02*Y149500D01*
Y150250D02*X18150Y149500D01*
X19650D01*
X20400Y150250D01*
Y151750D02*Y150250D01*
X19650Y152500D02*X20400Y151750D01*
X18150Y152500D02*X19650D01*
X17400Y151750D02*X18150Y152500D01*
X22200Y151750D02*Y150250D01*
Y151750D02*X22950Y152500D01*
X24450D01*
X25200Y151750D01*
Y150250D01*
X24450Y149500D02*X25200Y150250D01*
X22950Y149500D02*X24450D01*
X22200Y150250D02*X22950Y149500D01*
X27000Y155500D02*Y150250D01*
X27750Y149500D01*
X0Y146250D02*X29250D01*
X41750Y155500D02*Y149500D01*
X43700Y155500D02*X44750Y154450D01*
Y150550D01*
X43700Y149500D02*X44750Y150550D01*
X41000Y149500D02*X43700D01*
X41000Y155500D02*X43700D01*
G54D62*X46550Y154000D02*Y153850D01*
G54D61*Y151750D02*Y149500D01*
X50300Y152500D02*X51050Y151750D01*
X48800Y152500D02*X50300D01*
X48050Y151750D02*X48800Y152500D01*
X48050Y151750D02*Y150250D01*
X48800Y149500D01*
X51050Y152500D02*Y150250D01*
X51800Y149500D01*
X48800D02*X50300D01*
X51050Y150250D01*
X54350Y151750D02*Y149500D01*
Y151750D02*X55100Y152500D01*
X55850D01*
X56600Y151750D01*
Y149500D01*
Y151750D02*X57350Y152500D01*
X58100D01*
X58850Y151750D01*
Y149500D01*
X53600Y152500D02*X54350Y151750D01*
X60650Y149500D02*X61400D01*
X65900Y150250D02*X66650Y149500D01*
X65900Y154750D02*X66650Y155500D01*
X65900Y154750D02*Y150250D01*
X68450Y155500D02*X69950D01*
X69200D02*Y149500D01*
X68450D02*X69950D01*
X72500Y151750D02*Y149500D01*
Y151750D02*X73250Y152500D01*
X74000D01*
X74750Y151750D01*
Y149500D01*
X71750Y152500D02*X72500Y151750D01*
X77300Y152500D02*X79550D01*
X76550Y151750D02*X77300Y152500D01*
X76550Y151750D02*Y150250D01*
X77300Y149500D01*
X79550D01*
X81350Y155500D02*Y149500D01*
Y151750D02*X82100Y152500D01*
X83600D01*
X84350Y151750D01*
Y149500D01*
X86150Y155500D02*X86900Y154750D01*
Y150250D01*
X86150Y149500D02*X86900Y150250D01*
X41000Y146250D02*X88700D01*
X96050Y149500D02*X98000D01*
X95000Y150550D02*X96050Y149500D01*
X95000Y154450D02*Y150550D01*
Y154450D02*X96050Y155500D01*
X98000D01*
X99800Y151750D02*Y150250D01*
Y151750D02*X100550Y152500D01*
X102050D01*
X102800Y151750D01*
Y150250D01*
X102050Y149500D02*X102800Y150250D01*
X100550Y149500D02*X102050D01*
X99800Y150250D02*X100550Y149500D01*
X104600Y152500D02*Y150250D01*
X105350Y149500D01*
X106850D01*
X107600Y150250D01*
Y152500D02*Y150250D01*
X110150Y151750D02*Y149500D01*
Y151750D02*X110900Y152500D01*
X111650D01*
X112400Y151750D01*
Y149500D01*
X109400Y152500D02*X110150Y151750D01*
X114950Y155500D02*Y150250D01*
X115700Y149500D01*
X114200Y153250D02*X115700D01*
X95000Y146250D02*X117200D01*
X130750Y155500D02*Y149500D01*
X130000Y155500D02*X133000D01*
X133750Y154750D01*
Y153250D01*
X133000Y152500D02*X133750Y153250D01*
X130750Y152500D02*X133000D01*
X135550Y155500D02*Y150250D01*
X136300Y149500D01*
X140050Y152500D02*X140800Y151750D01*
X138550Y152500D02*X140050D01*
X137800Y151750D02*X138550Y152500D01*
X137800Y151750D02*Y150250D01*
X138550Y149500D01*
X140800Y152500D02*Y150250D01*
X141550Y149500D01*
X138550D02*X140050D01*
X140800Y150250D01*
X144100Y155500D02*Y150250D01*
X144850Y149500D01*
X143350Y153250D02*X144850D01*
X147100Y149500D02*X149350D01*
X146350Y150250D02*X147100Y149500D01*
X146350Y151750D02*Y150250D01*
Y151750D02*X147100Y152500D01*
X148600D01*
X149350Y151750D01*
X146350Y151000D02*X149350D01*
Y151750D02*Y151000D01*
X154150Y155500D02*Y149500D01*
X153400D02*X154150Y150250D01*
X151900Y149500D02*X153400D01*
X151150Y150250D02*X151900Y149500D01*
X151150Y151750D02*Y150250D01*
Y151750D02*X151900Y152500D01*
X153400D01*
X154150Y151750D01*
X157450Y152500D02*Y151750D01*
Y150250D02*Y149500D01*
X155950Y154750D02*Y154000D01*
Y154750D02*X156700Y155500D01*
X158200D01*
X158950Y154750D01*
Y154000D01*
X157450Y152500D02*X158950Y154000D01*
X130000Y146250D02*X160750D01*
X0Y170500D02*X3000D01*
X1500D02*Y164500D01*
X4800Y170500D02*Y164500D01*
Y166750D02*X5550Y167500D01*
X7050D01*
X7800Y166750D01*
Y164500D01*
X10350D02*X12600D01*
X9600Y165250D02*X10350Y164500D01*
X9600Y166750D02*Y165250D01*
Y166750D02*X10350Y167500D01*
X11850D01*
X12600Y166750D01*
X9600Y166000D02*X12600D01*
Y166750D02*Y166000D01*
X15150Y166750D02*Y164500D01*
Y166750D02*X15900Y167500D01*
X17400D01*
X14400D02*X15150Y166750D01*
X19950Y164500D02*X22200D01*
X19200Y165250D02*X19950Y164500D01*
X19200Y166750D02*Y165250D01*
Y166750D02*X19950Y167500D01*
X21450D01*
X22200Y166750D01*
X19200Y166000D02*X22200D01*
Y166750D02*Y166000D01*
X28950Y167500D02*X29700Y166750D01*
X27450Y167500D02*X28950D01*
X26700Y166750D02*X27450Y167500D01*
X26700Y166750D02*Y165250D01*
X27450Y164500D01*
X29700Y167500D02*Y165250D01*
X30450Y164500D01*
X27450D02*X28950D01*
X29700Y165250D01*
X33000Y166750D02*Y164500D01*
Y166750D02*X33750Y167500D01*
X35250D01*
X32250D02*X33000Y166750D01*
X37800Y164500D02*X40050D01*
X37050Y165250D02*X37800Y164500D01*
X37050Y166750D02*Y165250D01*
Y166750D02*X37800Y167500D01*
X39300D01*
X40050Y166750D01*
X37050Y166000D02*X40050D01*
Y166750D02*Y166000D01*
X44550Y166750D02*X47550Y170500D01*
X44550Y166750D02*X48300D01*
X47550Y170500D02*Y164500D01*
X55800Y170500D02*Y164500D01*
X55050D02*X55800Y165250D01*
X53550Y164500D02*X55050D01*
X52800Y165250D02*X53550Y164500D01*
X52800Y166750D02*Y165250D01*
Y166750D02*X53550Y167500D01*
X55050D01*
X55800Y166750D01*
G54D62*X57600Y169000D02*Y168850D01*
G54D61*Y166750D02*Y164500D01*
X59850Y169750D02*Y164500D01*
Y169750D02*X60600Y170500D01*
X61350D01*
X59100Y167500D02*X60600D01*
X63600Y169750D02*Y164500D01*
Y169750D02*X64350Y170500D01*
X65100D01*
X62850Y167500D02*X64350D01*
X67350Y164500D02*X69600D01*
X66600Y165250D02*X67350Y164500D01*
X66600Y166750D02*Y165250D01*
Y166750D02*X67350Y167500D01*
X68850D01*
X69600Y166750D01*
X66600Y166000D02*X69600D01*
Y166750D02*Y166000D01*
X72150Y166750D02*Y164500D01*
Y166750D02*X72900Y167500D01*
X74400D01*
X71400D02*X72150Y166750D01*
X76950Y164500D02*X79200D01*
X76200Y165250D02*X76950Y164500D01*
X76200Y166750D02*Y165250D01*
Y166750D02*X76950Y167500D01*
X78450D01*
X79200Y166750D01*
X76200Y166000D02*X79200D01*
Y166750D02*Y166000D01*
X81750Y166750D02*Y164500D01*
Y166750D02*X82500Y167500D01*
X83250D01*
X84000Y166750D01*
Y164500D01*
X81000Y167500D02*X81750Y166750D01*
X86550Y170500D02*Y165250D01*
X87300Y164500D01*
X85800Y168250D02*X87300D01*
X94500Y170500D02*Y164500D01*
X93750D02*X94500Y165250D01*
X92250Y164500D02*X93750D01*
X91500Y165250D02*X92250Y164500D01*
X91500Y166750D02*Y165250D01*
Y166750D02*X92250Y167500D01*
X93750D01*
X94500Y166750D01*
X97050D02*Y164500D01*
Y166750D02*X97800Y167500D01*
X99300D01*
X96300D02*X97050Y166750D01*
G54D62*X101100Y169000D02*Y168850D01*
G54D61*Y166750D02*Y164500D01*
X102600Y170500D02*Y165250D01*
X103350Y164500D01*
X104850Y170500D02*Y165250D01*
X105600Y164500D01*
X110550D02*X112800D01*
X113550Y165250D01*
X112800Y166000D02*X113550Y165250D01*
X110550Y166000D02*X112800D01*
X109800Y166750D02*X110550Y166000D01*
X109800Y166750D02*X110550Y167500D01*
X112800D01*
X113550Y166750D01*
X109800Y165250D02*X110550Y164500D01*
G54D62*X115350Y169000D02*Y168850D01*
G54D61*Y166750D02*Y164500D01*
X116850Y167500D02*X119850D01*
X116850Y164500D02*X119850Y167500D01*
X116850Y164500D02*X119850D01*
X122400D02*X124650D01*
X121650Y165250D02*X122400Y164500D01*
X121650Y166750D02*Y165250D01*
Y166750D02*X122400Y167500D01*
X123900D01*
X124650Y166750D01*
X121650Y166000D02*X124650D01*
Y166750D02*Y166000D01*
X127200Y164500D02*X129450D01*
X130200Y165250D01*
X129450Y166000D02*X130200Y165250D01*
X127200Y166000D02*X129450D01*
X126450Y166750D02*X127200Y166000D01*
X126450Y166750D02*X127200Y167500D01*
X129450D01*
X130200Y166750D01*
X126450Y165250D02*X127200Y164500D01*
X134700Y167500D02*Y165250D01*
X135450Y164500D01*
X136950D01*
X137700Y165250D01*
Y167500D02*Y165250D01*
X140250Y164500D02*X142500D01*
X143250Y165250D01*
X142500Y166000D02*X143250Y165250D01*
X140250Y166000D02*X142500D01*
X139500Y166750D02*X140250Y166000D01*
X139500Y166750D02*X140250Y167500D01*
X142500D01*
X143250Y166750D01*
X139500Y165250D02*X140250Y164500D01*
X145800D02*X148050D01*
X145050Y165250D02*X145800Y164500D01*
X145050Y166750D02*Y165250D01*
Y166750D02*X145800Y167500D01*
X147300D01*
X148050Y166750D01*
X145050Y166000D02*X148050D01*
Y166750D02*Y166000D01*
X152850Y170500D02*Y164500D01*
X152100D02*X152850Y165250D01*
X150600Y164500D02*X152100D01*
X149850Y165250D02*X150600Y164500D01*
X149850Y166750D02*Y165250D01*
Y166750D02*X150600Y167500D01*
X152100D01*
X152850Y166750D01*
G54D62*X157350Y169000D02*Y168850D01*
G54D61*Y166750D02*Y164500D01*
X159600Y166750D02*Y164500D01*
Y166750D02*X160350Y167500D01*
X161100D01*
X161850Y166750D01*
Y164500D01*
X158850Y167500D02*X159600Y166750D01*
X167100Y170500D02*Y165250D01*
X167850Y164500D01*
X166350Y168250D02*X167850D01*
X169350Y170500D02*Y164500D01*
Y166750D02*X170100Y167500D01*
X171600D01*
X172350Y166750D01*
Y164500D01*
G54D62*X174150Y169000D02*Y168850D01*
G54D61*Y166750D02*Y164500D01*
X176400D02*X178650D01*
X179400Y165250D01*
X178650Y166000D02*X179400Y165250D01*
X176400Y166000D02*X178650D01*
X175650Y166750D02*X176400Y166000D01*
X175650Y166750D02*X176400Y167500D01*
X178650D01*
X179400Y166750D01*
X175650Y165250D02*X176400Y164500D01*
X183900Y170500D02*Y165250D01*
X184650Y164500D01*
X188400Y167500D02*X189150Y166750D01*
X186900Y167500D02*X188400D01*
X186150Y166750D02*X186900Y167500D01*
X186150Y166750D02*Y165250D01*
X186900Y164500D01*
X189150Y167500D02*Y165250D01*
X189900Y164500D01*
X186900D02*X188400D01*
X189150Y165250D01*
X191700Y167500D02*Y165250D01*
X192450Y164500D01*
X194700Y167500D02*Y163000D01*
X193950Y162250D02*X194700Y163000D01*
X192450Y162250D02*X193950D01*
X191700Y163000D02*X192450Y162250D01*
Y164500D02*X193950D01*
X194700Y165250D01*
X196500Y166750D02*Y165250D01*
Y166750D02*X197250Y167500D01*
X198750D01*
X199500Y166750D01*
Y165250D01*
X198750Y164500D02*X199500Y165250D01*
X197250Y164500D02*X198750D01*
X196500Y165250D02*X197250Y164500D01*
X201300Y167500D02*Y165250D01*
X202050Y164500D01*
X203550D01*
X204300Y165250D01*
Y167500D02*Y165250D01*
X206850Y170500D02*Y165250D01*
X207600Y164500D01*
X206100Y168250D02*X207600D01*
X209100Y163000D02*X210600Y164500D01*
X215100Y166750D02*X218100Y170500D01*
X215100Y166750D02*X218850D01*
X218100Y170500D02*Y164500D01*
X220650Y170500D02*X223650D01*
X220650D02*Y167500D01*
X221400Y168250D01*
X222900D01*
X223650Y167500D01*
Y165250D01*
X222900Y164500D02*X223650Y165250D01*
X221400Y164500D02*X222900D01*
X220650Y165250D02*X221400Y164500D01*
X228150Y170500D02*Y164500D01*
Y166750D02*X228900Y167500D01*
X230400D01*
X231150Y166750D01*
Y164500D01*
X232950Y166750D02*Y165250D01*
Y166750D02*X233700Y167500D01*
X235200D01*
X235950Y166750D01*
Y165250D01*
X235200Y164500D02*X235950Y165250D01*
X233700Y164500D02*X235200D01*
X232950Y165250D02*X233700Y164500D01*
X237750Y170500D02*Y165250D01*
X238500Y164500D01*
X240750D02*X243000D01*
X240000Y165250D02*X240750Y164500D01*
X240000Y166750D02*Y165250D01*
Y166750D02*X240750Y167500D01*
X242250D01*
X243000Y166750D01*
X240000Y166000D02*X243000D01*
Y166750D02*Y166000D01*
X245550Y164500D02*X247800D01*
X248550Y165250D01*
X247800Y166000D02*X248550Y165250D01*
X245550Y166000D02*X247800D01*
X244800Y166750D02*X245550Y166000D01*
X244800Y166750D02*X245550Y167500D01*
X247800D01*
X248550Y166750D01*
X244800Y165250D02*X245550Y164500D01*
X253800Y170500D02*Y165250D01*
X254550Y164500D01*
X253050Y168250D02*X254550D01*
X256050Y166750D02*Y165250D01*
Y166750D02*X256800Y167500D01*
X258300D01*
X259050Y166750D01*
Y165250D01*
X258300Y164500D02*X259050Y165250D01*
X256800Y164500D02*X258300D01*
X256050Y165250D02*X256800Y164500D01*
X261600Y170500D02*Y165250D01*
X262350Y164500D01*
X260850Y168250D02*X262350D01*
X266100Y167500D02*X266850Y166750D01*
X264600Y167500D02*X266100D01*
X263850Y166750D02*X264600Y167500D01*
X263850Y166750D02*Y165250D01*
X264600Y164500D01*
X266850Y167500D02*Y165250D01*
X267600Y164500D01*
X264600D02*X266100D01*
X266850Y165250D01*
X269400Y170500D02*Y165250D01*
X270150Y164500D01*
G54D63*X0Y82000D02*X180000D01*
Y0D01*
X0D01*
Y82000D01*
G54D61*X3675Y-9500D02*X6675D01*
X7425Y-8750D01*
Y-6950D02*Y-8750D01*
X6675Y-6200D02*X7425Y-6950D01*
X4425Y-6200D02*X6675D01*
X4425Y-3500D02*Y-9500D01*
X3675Y-3500D02*X6675D01*
X7425Y-4250D01*
Y-5450D01*
X6675Y-6200D02*X7425Y-5450D01*
X9225Y-7250D02*Y-8750D01*
Y-7250D02*X9975Y-6500D01*
X11475D01*
X12225Y-7250D01*
Y-8750D01*
X11475Y-9500D02*X12225Y-8750D01*
X9975Y-9500D02*X11475D01*
X9225Y-8750D02*X9975Y-9500D01*
X16275Y-6500D02*X17025Y-7250D01*
X14775Y-6500D02*X16275D01*
X14025Y-7250D02*X14775Y-6500D01*
X14025Y-7250D02*Y-8750D01*
X14775Y-9500D01*
X17025Y-6500D02*Y-8750D01*
X17775Y-9500D01*
X14775D02*X16275D01*
X17025Y-8750D01*
X20325Y-7250D02*Y-9500D01*
Y-7250D02*X21075Y-6500D01*
X22575D01*
X19575D02*X20325Y-7250D01*
X27375Y-3500D02*Y-9500D01*
X26625D02*X27375Y-8750D01*
X25125Y-9500D02*X26625D01*
X24375Y-8750D02*X25125Y-9500D01*
X24375Y-7250D02*Y-8750D01*
Y-7250D02*X25125Y-6500D01*
X26625D01*
X27375Y-7250D01*
X31875D02*Y-8750D01*
Y-7250D02*X32625Y-6500D01*
X34125D01*
X34875Y-7250D01*
Y-8750D01*
X34125Y-9500D02*X34875Y-8750D01*
X32625Y-9500D02*X34125D01*
X31875Y-8750D02*X32625Y-9500D01*
X36675Y-6500D02*Y-8750D01*
X37425Y-9500D01*
X38925D01*
X39675Y-8750D01*
Y-6500D02*Y-8750D01*
X42225Y-3500D02*Y-8750D01*
X42975Y-9500D01*
X41475Y-5750D02*X42975D01*
X44475Y-3500D02*Y-8750D01*
X45225Y-9500D01*
G54D62*X46725Y-5000D02*Y-5150D01*
G54D61*Y-7250D02*Y-9500D01*
X48975Y-7250D02*Y-9500D01*
Y-7250D02*X49725Y-6500D01*
X50475D01*
X51225Y-7250D01*
Y-9500D01*
X48225Y-6500D02*X48975Y-7250D01*
X53775Y-9500D02*X56025D01*
X53025Y-8750D02*X53775Y-9500D01*
X53025Y-7250D02*Y-8750D01*
Y-7250D02*X53775Y-6500D01*
X55275D01*
X56025Y-7250D01*
X53025Y-8000D02*X56025D01*
Y-7250D02*Y-8000D01*
G54D62*X60525Y-5000D02*Y-5150D01*
G54D61*Y-7250D02*Y-9500D01*
X62775D02*X65025D01*
X65775Y-8750D01*
X65025Y-8000D02*X65775Y-8750D01*
X62775Y-8000D02*X65025D01*
X62025Y-7250D02*X62775Y-8000D01*
X62025Y-7250D02*X62775Y-6500D01*
X65025D01*
X65775Y-7250D01*
X62025Y-8750D02*X62775Y-9500D01*
X71025Y-3500D02*Y-8750D01*
X71775Y-9500D01*
X70275Y-5750D02*X71775D01*
X73275Y-3500D02*Y-9500D01*
Y-7250D02*X74025Y-6500D01*
X75525D01*
X76275Y-7250D01*
Y-9500D01*
X78825D02*X81075D01*
X78075Y-8750D02*X78825Y-9500D01*
X78075Y-7250D02*Y-8750D01*
Y-7250D02*X78825Y-6500D01*
X80325D01*
X81075Y-7250D01*
X78075Y-8000D02*X81075D01*
Y-7250D02*Y-8000D01*
X86325Y-6500D02*X88575D01*
X85575Y-7250D02*X86325Y-6500D01*
X85575Y-7250D02*Y-8750D01*
X86325Y-9500D01*
X88575D01*
X91125D02*X93375D01*
X90375Y-8750D02*X91125Y-9500D01*
X90375Y-7250D02*Y-8750D01*
Y-7250D02*X91125Y-6500D01*
X92625D01*
X93375Y-7250D01*
X90375Y-8000D02*X93375D01*
Y-7250D02*Y-8000D01*
X95925Y-7250D02*Y-9500D01*
Y-7250D02*X96675Y-6500D01*
X97425D01*
X98175Y-7250D01*
Y-9500D01*
X95175Y-6500D02*X95925Y-7250D01*
X100725Y-3500D02*Y-8750D01*
X101475Y-9500D01*
X99975Y-5750D02*X101475D01*
X103725Y-9500D02*X105975D01*
X102975Y-8750D02*X103725Y-9500D01*
X102975Y-7250D02*Y-8750D01*
Y-7250D02*X103725Y-6500D01*
X105225D01*
X105975Y-7250D01*
X102975Y-8000D02*X105975D01*
Y-7250D02*Y-8000D01*
X108525Y-7250D02*Y-9500D01*
Y-7250D02*X109275Y-6500D01*
X110775D01*
X107775D02*X108525Y-7250D01*
X112575Y-3500D02*Y-8750D01*
X113325Y-9500D01*
G54D62*X114825Y-5000D02*Y-5150D01*
G54D61*Y-7250D02*Y-9500D01*
X117075Y-7250D02*Y-9500D01*
Y-7250D02*X117825Y-6500D01*
X118575D01*
X119325Y-7250D01*
Y-9500D01*
X116325Y-6500D02*X117075Y-7250D01*
X121875Y-9500D02*X124125D01*
X121125Y-8750D02*X121875Y-9500D01*
X121125Y-7250D02*Y-8750D01*
Y-7250D02*X121875Y-6500D01*
X123375D01*
X124125Y-7250D01*
X121125Y-8000D02*X124125D01*
Y-7250D02*Y-8000D01*
X128625Y-7250D02*Y-8750D01*
Y-7250D02*X129375Y-6500D01*
X130875D01*
X131625Y-7250D01*
Y-8750D01*
X130875Y-9500D02*X131625Y-8750D01*
X129375Y-9500D02*X130875D01*
X128625Y-8750D02*X129375Y-9500D01*
X134175Y-4250D02*Y-9500D01*
Y-4250D02*X134925Y-3500D01*
X135675D01*
X133425Y-6500D02*X134925D01*
X140625Y-3500D02*Y-8750D01*
X141375Y-9500D01*
X139875Y-5750D02*X141375D01*
X142875Y-3500D02*Y-9500D01*
Y-7250D02*X143625Y-6500D01*
X145125D01*
X145875Y-7250D01*
Y-9500D01*
G54D62*X147675Y-5000D02*Y-5150D01*
G54D61*Y-7250D02*Y-9500D01*
X149925D02*X152175D01*
X152925Y-8750D01*
X152175Y-8000D02*X152925Y-8750D01*
X149925Y-8000D02*X152175D01*
X149175Y-7250D02*X149925Y-8000D01*
X149175Y-7250D02*X149925Y-6500D01*
X152175D01*
X152925Y-7250D01*
X149175Y-8750D02*X149925Y-9500D01*
X158175Y-7250D02*Y-11750D01*
X157425Y-6500D02*X158175Y-7250D01*
X158925Y-6500D01*
X160425D01*
X161175Y-7250D01*
Y-8750D01*
X160425Y-9500D02*X161175Y-8750D01*
X158925Y-9500D02*X160425D01*
X158175Y-8750D02*X158925Y-9500D01*
X165225Y-6500D02*X165975Y-7250D01*
X163725Y-6500D02*X165225D01*
X162975Y-7250D02*X163725Y-6500D01*
X162975Y-7250D02*Y-8750D01*
X163725Y-9500D01*
X165975Y-6500D02*Y-8750D01*
X166725Y-9500D01*
X163725D02*X165225D01*
X165975Y-8750D01*
X169275Y-3500D02*Y-8750D01*
X170025Y-9500D01*
X168525Y-5750D02*X170025D01*
X171525Y-3500D02*Y-9500D01*
Y-7250D02*X172275Y-6500D01*
X173775D01*
X174525Y-7250D01*
Y-9500D01*
X200750Y110500D02*Y104500D01*
X202700Y110500D02*X203750Y109450D01*
Y105550D01*
X202700Y104500D02*X203750Y105550D01*
X200000Y104500D02*X202700D01*
X200000Y110500D02*X202700D01*
X207800Y107500D02*X208550Y106750D01*
X206300Y107500D02*X207800D01*
X205550Y106750D02*X206300Y107500D01*
X205550Y106750D02*Y105250D01*
X206300Y104500D01*
X208550Y107500D02*Y105250D01*
X209300Y104500D01*
X206300D02*X207800D01*
X208550Y105250D01*
X211850Y110500D02*Y105250D01*
X212600Y104500D01*
X211100Y108250D02*X212600D01*
X214850Y104500D02*X217100D01*
X214100Y105250D02*X214850Y104500D01*
X214100Y106750D02*Y105250D01*
Y106750D02*X214850Y107500D01*
X216350D01*
X217100Y106750D01*
X214100Y106000D02*X217100D01*
Y106750D02*Y106000D01*
X218900Y108250D02*X219650D01*
X218900Y106750D02*X219650D01*
X224150Y110500D02*X227150D01*
X225650D02*Y104500D01*
X228950Y107500D02*Y105250D01*
X229700Y104500D01*
X231200D01*
X231950Y105250D01*
Y107500D02*Y105250D01*
X234500Y104500D02*X236750D01*
X233750Y105250D02*X234500Y104500D01*
X233750Y106750D02*Y105250D01*
Y106750D02*X234500Y107500D01*
X236000D01*
X236750Y106750D01*
X233750Y106000D02*X236750D01*
Y106750D02*Y106000D01*
X241250Y109750D02*X242000Y110500D01*
X244250D01*
X245000Y109750D01*
Y108250D01*
X241250Y104500D02*X245000Y108250D01*
X241250Y104500D02*X245000D01*
X247550D02*X250550Y110500D01*
X246800D02*X250550D01*
X255050Y109000D02*Y104500D01*
Y109000D02*X256100Y110500D01*
X257750D01*
X258800Y109000D01*
Y104500D01*
X255050Y107500D02*X258800D01*
X260600D02*Y105250D01*
X261350Y104500D01*
X262850D01*
X263600Y105250D01*
Y107500D02*Y105250D01*
X267650Y107500D02*X268400Y106750D01*
X266150Y107500D02*X267650D01*
X265400Y106750D02*X266150Y107500D01*
X265400Y106750D02*Y105250D01*
X266150Y104500D01*
X267650D01*
X268400Y105250D01*
X265400Y103000D02*X266150Y102250D01*
X267650D01*
X268400Y103000D01*
Y107500D02*Y103000D01*
X272900Y109750D02*X273650Y110500D01*
X275900D01*
X276650Y109750D01*
Y108250D01*
X272900Y104500D02*X276650Y108250D01*
X272900Y104500D02*X276650D01*
X278450Y105250D02*X279200Y104500D01*
X278450Y109750D02*Y105250D01*
Y109750D02*X279200Y110500D01*
X280700D01*
X281450Y109750D01*
Y105250D01*
X280700Y104500D02*X281450Y105250D01*
X279200Y104500D02*X280700D01*
X278450Y106000D02*X281450Y109000D01*
X283250Y109300D02*X284450Y110500D01*
Y104500D01*
X283250D02*X285500D01*
X287300Y109750D02*X288050Y110500D01*
X289550D01*
X290300Y109750D01*
X289550Y104500D02*X290300Y105250D01*
X288050Y104500D02*X289550D01*
X287300Y105250D02*X288050Y104500D01*
Y107800D02*X289550D01*
X290300Y109750D02*Y108550D01*
Y107050D02*Y105250D01*
Y107050D02*X289550Y107800D01*
X290300Y108550D02*X289550Y107800D01*
X294800Y105250D02*X295550Y104500D01*
X294800Y109750D02*Y105250D01*
Y109750D02*X295550Y110500D01*
X297050D01*
X297800Y109750D01*
Y105250D01*
X297050Y104500D02*X297800Y105250D01*
X295550Y104500D02*X297050D01*
X294800Y106000D02*X297800Y109000D01*
X299600Y109750D02*X300350Y110500D01*
X301850D01*
X302600Y109750D01*
X301850Y104500D02*X302600Y105250D01*
X300350Y104500D02*X301850D01*
X299600Y105250D02*X300350Y104500D01*
Y107800D02*X301850D01*
X302600Y109750D02*Y108550D01*
Y107050D02*Y105250D01*
Y107050D02*X301850Y107800D01*
X302600Y108550D02*X301850Y107800D01*
X304400Y108250D02*X305150D01*
X304400Y106750D02*X305150D01*
X306950Y110500D02*X309950D01*
X306950D02*Y107500D01*
X307700Y108250D01*
X309200D01*
X309950Y107500D01*
Y105250D01*
X309200Y104500D02*X309950Y105250D01*
X307700Y104500D02*X309200D01*
X306950Y105250D02*X307700Y104500D01*
X311750Y105250D02*X312500Y104500D01*
X311750Y109750D02*Y105250D01*
Y109750D02*X312500Y110500D01*
X314000D01*
X314750Y109750D01*
Y105250D01*
X314000Y104500D02*X314750Y105250D01*
X312500Y104500D02*X314000D01*
X311750Y106000D02*X314750Y109000D01*
X316550Y108250D02*X317300D01*
X316550Y106750D02*X317300D01*
X319100Y105250D02*X319850Y104500D01*
X319100Y109750D02*Y105250D01*
Y109750D02*X319850Y110500D01*
X321350D01*
X322100Y109750D01*
Y105250D01*
X321350Y104500D02*X322100Y105250D01*
X319850Y104500D02*X321350D01*
X319100Y106000D02*X322100Y109000D01*
X323900Y106750D02*X326900Y110500D01*
X323900Y106750D02*X327650D01*
X326900Y110500D02*Y104500D01*
X332150Y109000D02*Y104500D01*
Y109000D02*X333200Y110500D01*
X334850D01*
X335900Y109000D01*
Y104500D01*
X332150Y107500D02*X335900D01*
X337700Y110500D02*Y104500D01*
Y110500D02*X339950Y107500D01*
X342200Y110500D01*
Y104500D01*
X349700Y110500D02*X350450Y109750D01*
X347450Y110500D02*X349700D01*
X346700Y109750D02*X347450Y110500D01*
X346700Y109750D02*Y105250D01*
X347450Y104500D01*
X349700D01*
X350450Y105250D01*
Y106750D02*Y105250D01*
X349700Y107500D02*X350450Y106750D01*
X348200Y107500D02*X349700D01*
X352250Y110500D02*Y104500D01*
Y110500D02*X354500Y107500D01*
X356750Y110500D01*
Y104500D01*
X358550Y110500D02*X361550D01*
X360050D02*Y104500D01*
X366050Y110500D02*Y105250D01*
X366800Y104500D01*
X368300D01*
X369050Y105250D01*
Y110500D02*Y105250D01*
X370850Y110500D02*X373850D01*
X372350D02*Y104500D01*
X376700D02*X378650D01*
X375650Y105550D02*X376700Y104500D01*
X375650Y109450D02*Y105550D01*
Y109450D02*X376700Y110500D01*
X378650D01*
X200000Y124000D02*Y119500D01*
Y124000D02*X201050Y125500D01*
X202700D01*
X203750Y124000D01*
Y119500D01*
X200000Y122500D02*X203750D01*
X205550D02*Y120250D01*
X206300Y119500D01*
X207800D01*
X208550Y120250D01*
Y122500D02*Y120250D01*
X211100Y125500D02*Y120250D01*
X211850Y119500D01*
X210350Y123250D02*X211850D01*
X213350Y125500D02*Y119500D01*
Y121750D02*X214100Y122500D01*
X215600D01*
X216350Y121750D01*
Y119500D01*
X218150Y121750D02*Y120250D01*
Y121750D02*X218900Y122500D01*
X220400D01*
X221150Y121750D01*
Y120250D01*
X220400Y119500D02*X221150Y120250D01*
X218900Y119500D02*X220400D01*
X218150Y120250D02*X218900Y119500D01*
X223700Y121750D02*Y119500D01*
Y121750D02*X224450Y122500D01*
X225950D01*
X222950D02*X223700Y121750D01*
X227750Y123250D02*X228500D01*
X227750Y121750D02*X228500D01*
X233000Y125500D02*Y119500D01*
Y125500D02*X236750Y119500D01*
Y125500D02*Y119500D01*
X240800Y122500D02*X241550Y121750D01*
X239300Y122500D02*X240800D01*
X238550Y121750D02*X239300Y122500D01*
X238550Y121750D02*Y120250D01*
X239300Y119500D01*
X241550Y122500D02*Y120250D01*
X242300Y119500D01*
X239300D02*X240800D01*
X241550Y120250D01*
X244850Y125500D02*Y120250D01*
X245600Y119500D01*
X244100Y123250D02*X245600D01*
X247100Y125500D02*Y119500D01*
Y121750D02*X247850Y122500D01*
X249350D01*
X250100Y121750D01*
Y119500D01*
X254150Y122500D02*X254900Y121750D01*
X252650Y122500D02*X254150D01*
X251900Y121750D02*X252650Y122500D01*
X251900Y121750D02*Y120250D01*
X252650Y119500D01*
X254900Y122500D02*Y120250D01*
X255650Y119500D01*
X252650D02*X254150D01*
X254900Y120250D01*
X258200Y121750D02*Y119500D01*
Y121750D02*X258950Y122500D01*
X259700D01*
X260450Y121750D01*
Y119500D01*
X257450Y122500D02*X258200Y121750D01*
X264950Y125500D02*Y119500D01*
X268700Y125500D02*Y119500D01*
X264950Y122500D02*X268700D01*
X270500Y121750D02*Y120250D01*
Y121750D02*X271250Y122500D01*
X272750D01*
X273500Y121750D01*
Y120250D01*
X272750Y119500D02*X273500Y120250D01*
X271250Y119500D02*X272750D01*
X270500Y120250D02*X271250Y119500D01*
X275300Y125500D02*Y120250D01*
X276050Y119500D01*
X278300Y121750D02*Y119500D01*
Y121750D02*X279050Y122500D01*
X279800D01*
X280550Y121750D01*
Y119500D01*
Y121750D02*X281300Y122500D01*
X282050D01*
X282800Y121750D01*
Y119500D01*
X277550Y122500D02*X278300Y121750D01*
X285350Y119500D02*X287600D01*
X284600Y120250D02*X285350Y119500D01*
X284600Y121750D02*Y120250D01*
Y121750D02*X285350Y122500D01*
X286850D01*
X287600Y121750D01*
X284600Y121000D02*X287600D01*
Y121750D02*Y121000D01*
X290150Y119500D02*X292400D01*
X293150Y120250D01*
X292400Y121000D02*X293150Y120250D01*
X290150Y121000D02*X292400D01*
X289400Y121750D02*X290150Y121000D01*
X289400Y121750D02*X290150Y122500D01*
X292400D01*
X293150Y121750D01*
X289400Y120250D02*X290150Y119500D01*
X200000Y140500D02*X203000D01*
X201500D02*Y134500D01*
G54D62*X204800Y139000D02*Y138850D01*
G54D61*Y136750D02*Y134500D01*
X207050Y140500D02*Y135250D01*
X207800Y134500D01*
X206300Y138250D02*X207800D01*
X209300Y140500D02*Y135250D01*
X210050Y134500D01*
X212300D02*X214550D01*
X211550Y135250D02*X212300Y134500D01*
X211550Y136750D02*Y135250D01*
Y136750D02*X212300Y137500D01*
X213800D01*
X214550Y136750D01*
X211550Y136000D02*X214550D01*
Y136750D02*Y136000D01*
X216350Y138250D02*X217100D01*
X216350Y136750D02*X217100D01*
X221600Y135250D02*X222350Y134500D01*
X221600Y139750D02*X222350Y140500D01*
X221600Y139750D02*Y135250D01*
X224150Y137500D02*Y135250D01*
X224900Y134500D01*
X226400D01*
X227150Y135250D01*
Y137500D02*Y135250D01*
X229700Y136750D02*Y134500D01*
Y136750D02*X230450Y137500D01*
X231200D01*
X231950Y136750D01*
Y134500D01*
X228950Y137500D02*X229700Y136750D01*
X233750Y140500D02*Y134500D01*
Y136750D02*X236000Y134500D01*
X233750Y136750D02*X235250Y138250D01*
X238550Y136750D02*Y134500D01*
Y136750D02*X239300Y137500D01*
X240050D01*
X240800Y136750D01*
Y134500D01*
X237800Y137500D02*X238550Y136750D01*
X242600D02*Y135250D01*
Y136750D02*X243350Y137500D01*
X244850D01*
X245600Y136750D01*
Y135250D01*
X244850Y134500D02*X245600Y135250D01*
X243350Y134500D02*X244850D01*
X242600Y135250D02*X243350Y134500D01*
X247400Y137500D02*Y135250D01*
X248150Y134500D01*
X248900D01*
X249650Y135250D01*
Y137500D02*Y135250D01*
X250400Y134500D01*
X251150D01*
X251900Y135250D01*
Y137500D02*Y135250D01*
X254450Y136750D02*Y134500D01*
Y136750D02*X255200Y137500D01*
X255950D01*
X256700Y136750D01*
Y134500D01*
X253700Y137500D02*X254450Y136750D01*
X258500Y140500D02*X259250Y139750D01*
Y135250D01*
X258500Y134500D02*X259250Y135250D01*
X263750Y137500D02*X266750D01*
X271250Y140500D02*Y134500D01*
Y140500D02*X274250D01*
X271250Y137800D02*X273500D01*
X278300Y137500D02*X279050Y136750D01*
X276800Y137500D02*X278300D01*
X276050Y136750D02*X276800Y137500D01*
X276050Y136750D02*Y135250D01*
X276800Y134500D01*
X279050Y137500D02*Y135250D01*
X279800Y134500D01*
X276800D02*X278300D01*
X279050Y135250D01*
X281600Y140500D02*Y134500D01*
Y135250D02*X282350Y134500D01*
X283850D01*
X284600Y135250D01*
Y136750D02*Y135250D01*
X283850Y137500D02*X284600Y136750D01*
X282350Y137500D02*X283850D01*
X281600Y136750D02*X282350Y137500D01*
X287150Y136750D02*Y134500D01*
Y136750D02*X287900Y137500D01*
X289400D01*
X286400D02*X287150Y136750D01*
G54D62*X291200Y139000D02*Y138850D01*
G54D61*Y136750D02*Y134500D01*
X293450Y137500D02*X295700D01*
X292700Y136750D02*X293450Y137500D01*
X292700Y136750D02*Y135250D01*
X293450Y134500D01*
X295700D01*
X299750Y137500D02*X300500Y136750D01*
X298250Y137500D02*X299750D01*
X297500Y136750D02*X298250Y137500D01*
X297500Y136750D02*Y135250D01*
X298250Y134500D01*
X300500Y137500D02*Y135250D01*
X301250Y134500D01*
X298250D02*X299750D01*
X300500Y135250D01*
X303800Y140500D02*Y135250D01*
X304550Y134500D01*
X303050Y138250D02*X304550D01*
G54D62*X306050Y139000D02*Y138850D01*
G54D61*Y136750D02*Y134500D01*
X307550Y136750D02*Y135250D01*
Y136750D02*X308300Y137500D01*
X309800D01*
X310550Y136750D01*
Y135250D01*
X309800Y134500D02*X310550Y135250D01*
X308300Y134500D02*X309800D01*
X307550Y135250D02*X308300Y134500D01*
X313100Y136750D02*Y134500D01*
Y136750D02*X313850Y137500D01*
X314600D01*
X315350Y136750D01*
Y134500D01*
X312350Y137500D02*X313100Y136750D01*
X320600Y140500D02*Y134500D01*
X322550Y140500D02*X323600Y139450D01*
Y135550D01*
X322550Y134500D02*X323600Y135550D01*
X319850Y134500D02*X322550D01*
X319850Y140500D02*X322550D01*
X326150Y136750D02*Y134500D01*
Y136750D02*X326900Y137500D01*
X328400D01*
X325400D02*X326150Y136750D01*
X332450Y137500D02*X333200Y136750D01*
X330950Y137500D02*X332450D01*
X330200Y136750D02*X330950Y137500D01*
X330200Y136750D02*Y135250D01*
X330950Y134500D01*
X333200Y137500D02*Y135250D01*
X333950Y134500D01*
X330950D02*X332450D01*
X333200Y135250D01*
X335750Y137500D02*Y135250D01*
X336500Y134500D01*
X337250D01*
X338000Y135250D01*
Y137500D02*Y135250D01*
X338750Y134500D01*
X339500D01*
X340250Y135250D01*
Y137500D02*Y135250D01*
G54D62*X342050Y139000D02*Y138850D01*
G54D61*Y136750D02*Y134500D01*
X344300Y136750D02*Y134500D01*
Y136750D02*X345050Y137500D01*
X345800D01*
X346550Y136750D01*
Y134500D01*
X343550Y137500D02*X344300Y136750D01*
X350600Y137500D02*X351350Y136750D01*
X349100Y137500D02*X350600D01*
X348350Y136750D02*X349100Y137500D01*
X348350Y136750D02*Y135250D01*
X349100Y134500D01*
X350600D01*
X351350Y135250D01*
X348350Y133000D02*X349100Y132250D01*
X350600D01*
X351350Y133000D01*
Y137500D02*Y133000D01*
M02*
